<svg width="66" height="60" viewBox="0 0 66 60" fill="none" xmlns="http://www.w3.org/2000/svg">
<g id="308062759_f60f8001-13e6-4743-bb5c-6dd73ebb834b 1" opacity="0.7" clip-path="url(#clip0_348_61174)">
<path id="Vector" d="M26.2799 57.0923C26.4195 57.1173 26.5343 57.2383 26.6291 57.3379C26.7545 57.4694 26.8363 57.5728 26.8311 57.7558C26.67 57.707 26.5014 57.5193 26.3921 57.3945C26.2962 57.285 26.2704 57.2389 26.2799 57.0923Z" fill="black"/>
<path id="Vector_2" d="M28.3453 57.0908L28.4317 57.1326L28.4375 57.2092C28.3308 57.4033 28.1568 57.5664 28.0088 57.7303C27.9637 57.7127 27.9853 57.7252 27.939 57.681C27.886 57.6304 27.9015 57.6275 27.9007 57.559C28.0086 57.3752 28.1899 57.2349 28.3453 57.0908Z" fill="black"/>
<path id="Vector_3" d="M7.41302 5.11475C7.45083 5.12153 7.48305 5.13951 7.51787 5.15531L7.52154 5.23473C7.39478 5.43288 7.20472 5.58643 7.03364 5.74616C6.96226 5.73199 6.99836 5.74736 6.93132 5.68822C6.93162 5.67666 6.93027 5.66488 6.93229 5.65347C6.96338 5.47665 7.28282 5.2369 7.41302 5.11475Z" fill="black"/>
<path id="Vector_4" d="M27.9606 58.6675C28.1111 58.7968 28.3789 58.979 28.4396 59.1713C28.4579 59.2298 28.4228 59.2665 28.3985 59.3183C28.2341 59.224 27.9433 59.0093 27.8915 58.8196C27.8754 58.7605 27.9294 58.7151 27.9606 58.6675Z" fill="black"/>
<path id="Vector_5" d="M8.57727 5.11768C8.70119 5.15131 8.80739 5.23602 8.90358 5.31835C9.0488 5.44274 9.20105 5.58205 9.21876 5.78041C9.05904 5.73694 8.95007 5.64297 8.83034 5.53171C8.69379 5.40479 8.58437 5.30709 8.57727 5.11768Z" fill="black"/>
<path id="Vector_6" d="M9.03785 3.51172C9.08366 3.52462 9.11064 3.54349 9.15003 3.56929L9.15182 3.6467C9.02664 3.84976 8.82409 4.01211 8.65062 4.17543L8.56482 4.11152C8.57155 3.8951 8.88792 3.65803 9.03785 3.51172Z" fill="black"/>
<path id="Vector_7" d="M62.8006 30.5195C63.0087 30.946 63.18 31.3905 63.372 31.8245C63.9567 33.1463 64.4951 34.4655 64.8827 35.8611C64.9152 35.9774 64.9467 36.0939 64.9771 36.2108C65.0074 36.3276 65.0367 36.4448 65.0649 36.5622C65.0931 36.6796 65.1202 36.7972 65.1462 36.9151C65.1722 37.033 65.1971 37.1512 65.2209 37.2695C65.2447 37.3879 65.2674 37.5064 65.289 37.6252C65.3106 37.744 65.331 37.863 65.3504 37.9822C65.3698 38.1014 65.3881 38.2207 65.4053 38.3402C65.4224 38.4597 65.4384 38.5793 65.4533 38.6992C65.4683 38.8189 65.4821 38.9388 65.4948 39.0589C65.5075 39.179 65.5191 39.2991 65.5295 39.4194C65.5399 39.5397 65.5493 39.66 65.5575 39.7805C65.5657 39.9009 65.5728 40.0214 65.5788 40.142C65.5848 40.2626 65.5896 40.3832 65.5933 40.5039C65.597 40.6246 65.5996 40.7452 65.6011 40.866C65.6026 40.9867 65.6029 41.1074 65.6022 41.2281C65.6014 41.3488 65.5995 41.4695 65.5965 41.5902C65.5934 41.7109 65.5893 41.8316 65.584 41.9522C65.5788 42.0727 65.5724 42.1933 65.5649 42.3138C65.5573 42.4343 65.5488 42.5547 65.539 42.6751C65.5292 42.7954 65.5184 42.9156 65.5064 43.0357C65.4943 43.1558 65.4813 43.2759 65.4671 43.3958C65.4528 43.5156 65.4375 43.6354 65.421 43.755C65.4045 43.8746 65.3869 43.9941 65.3683 44.1133C65.3496 44.2325 65.3298 44.3516 65.3089 44.4706C65.2881 44.5895 65.266 44.7082 65.2429 44.8267C65.2198 44.9452 65.1956 45.0634 65.1703 45.1815C65.1449 45.2995 65.1185 45.4174 65.091 45.5349C65.0635 45.6525 65.0349 45.7698 65.0052 45.8868C64.9756 46.0038 64.9448 46.1206 64.9129 46.237C64.881 46.3535 64.8481 46.4697 64.8141 46.5855C64.7801 46.7013 64.7449 46.8169 64.7088 46.9321C64.6726 47.0473 64.6354 47.1622 64.597 47.2767C63.0375 51.7893 59.1755 55.4485 54.9363 57.5059C49.9986 59.9024 44.7578 60.0841 39.4406 59.0215C37.5562 58.6449 35.6721 58.1138 33.8215 57.597C31.5236 56.9553 29.2406 56.2512 26.9027 55.7648C27.0963 55.6437 29.0847 55.379 29.5495 55.2693C32.4612 54.5821 35.1177 53.1287 37.4101 51.2355C38.1166 50.6519 38.8316 50.0191 39.3853 49.2854L47.5879 47.8219C49.0746 47.5659 50.595 47.3803 52.0688 47.0652C53.3448 46.7922 54.386 46.1076 55.0912 45.001C55.9568 43.6426 55.862 42.4869 55.5914 40.9737C55.4893 40.373 55.3739 39.7749 55.2455 39.1793C55.4497 39.2226 55.6639 39.3339 55.8693 39.3937C56.6182 39.6116 57.3665 39.7095 58.1471 39.6595C58.2334 39.6532 58.3195 39.6448 58.4054 39.6344C58.4913 39.6239 58.577 39.6114 58.6622 39.5967C58.7475 39.5821 58.8324 39.5654 58.9169 39.5467C59.0014 39.5279 59.0854 39.5071 59.1688 39.4843C59.2523 39.4614 59.3351 39.4366 59.4174 39.4097C59.4996 39.3828 59.5812 39.3539 59.662 39.3231C59.7428 39.2923 59.8229 39.2594 59.9021 39.2248C59.9813 39.19 60.0597 39.1533 60.1372 39.1148C60.2146 39.0762 60.291 39.0359 60.3665 38.9936C60.4419 38.9513 60.5164 38.9072 60.5897 38.8613C60.663 38.8154 60.7351 38.7678 60.8062 38.7183C60.8771 38.669 60.9468 38.6179 61.0153 38.5651C61.0838 38.5123 61.1509 38.4578 61.2168 38.4018C61.2826 38.3457 61.347 38.288 61.41 38.2288C61.4731 38.1696 61.5346 38.1089 61.5946 38.0467C61.6547 37.9845 61.7132 37.9209 61.7701 37.8559C63.1017 36.3223 63.3294 34.2053 63.0884 32.2608C63.0183 31.6949 62.835 31.1207 62.8021 30.5548C62.8015 30.5431 62.8011 30.5313 62.8006 30.5195Z" fill="url(#paint0_linear_348_61174)"/>
<path id="Vector_8" d="M5.31897 22.1448C5.31964 21.9692 5.32211 21.7937 5.32637 21.6181C5.46905 16.1061 7.51445 11.1791 11.5549 7.3658C13.4052 5.61951 15.5784 4.29202 17.8982 3.26126C22.9155 1.03187 28.2881 0.308355 33.7353 0.828135C34.9356 0.932166 36.1274 1.09697 37.3108 1.32271C38.4064 1.53882 39.4915 1.79894 40.5659 2.10305C42.143 2.55422 43.9558 3.22516 45.598 3.27043C45.008 3.73928 44.3872 4.16599 43.8134 4.65594C42.2523 5.98909 40.6652 7.77775 39.6264 9.55037C40.1504 9.462 43.1305 8.88316 43.355 9.01142C43.3928 9.03298 43.3903 9.07056 43.4006 9.10926C43.366 9.20002 43.3172 9.26356 43.2287 9.3077C43.0524 9.39578 39.7378 9.92577 39.3721 9.95956C39.109 10.3723 38.8412 10.7812 38.6518 11.2342C38.2951 11.3006 37.712 11.4837 37.3667 11.4196C37.3648 11.3675 37.3648 11.317 37.3657 11.2648C37.3322 11.2658 37.2859 11.299 37.2636 11.3191C37.2234 11.3555 37.1889 11.4214 37.1592 11.4675C36.8521 11.617 34.1558 11.9891 33.5502 12.0958L25.0494 13.6088L19.6497 14.5443L17.3603 14.9515C16.4317 15.1179 15.4439 15.2278 14.5936 15.6591C14.532 15.6911 14.4713 15.7245 14.4113 15.7593C14.3513 15.7941 14.2922 15.8304 14.234 15.868C14.1757 15.9056 14.1184 15.9446 14.0619 15.9849C14.0055 16.0252 13.9501 16.0669 13.8957 16.1098C13.8412 16.1528 13.7879 16.197 13.7355 16.2424C13.6832 16.2878 13.632 16.3345 13.5818 16.3824C13.5317 16.4303 13.4826 16.4792 13.4349 16.5294C13.387 16.5796 13.3404 16.6309 13.295 16.6832C13.2497 16.7356 13.2055 16.789 13.1627 16.8435C13.1198 16.8979 13.0782 16.9533 13.038 17.0098C12.9977 17.0661 12.9588 17.1235 12.9213 17.1817C12.8838 17.24 12.8477 17.299 12.813 17.359C12.7782 17.4189 12.7449 17.4797 12.713 17.5412C12.6812 17.6027 12.6508 17.6649 12.6218 17.7278C12.5929 17.7908 12.5656 17.8544 12.5396 17.9186C12.5137 17.9828 12.4893 18.0476 12.4665 18.113C12.4186 18.2562 12.3771 18.4012 12.3418 18.5479C12.3065 18.6947 12.2777 18.8427 12.2553 18.9919C12.2328 19.1412 12.2169 19.2911 12.2076 19.4418C12.1982 19.5924 12.1954 19.7432 12.1991 19.8941C9.70887 20.0048 7.38141 20.7313 5.31897 22.1448Z" fill="url(#paint1_linear_348_61174)"/>
<path id="Vector_9" d="M39.6274 9.55009C40.1513 9.46172 43.1314 8.88287 43.3559 9.01114C43.3938 9.03269 43.3912 9.07028 43.4015 9.10898C43.3669 9.19974 43.3181 9.26328 43.2296 9.30742C43.0533 9.3955 39.7388 9.92549 39.3731 9.95927C38.7246 10.0278 38.0795 10.1776 37.436 10.2832C36.1873 10.4883 34.9318 10.6834 33.6887 10.9175C33.5527 10.9431 33.4835 10.9462 33.3674 10.8698C33.3427 10.7709 33.3375 10.766 33.3774 10.6733C33.4648 10.6046 33.5369 10.5881 33.6452 10.5657C34.9935 10.2877 36.3654 10.0893 37.725 9.8718C38.344 9.77284 38.9828 9.72012 39.5895 9.56038L39.6274 9.55009Z" fill="black"/>
<path id="Vector_10" d="M12.1985 19.894C12.2667 20.7387 12.4494 21.5711 12.6059 22.4029L13.2408 25.8238C13.9984 30.0887 14.8102 34.3433 15.6764 38.5876C16.3099 41.7243 16.8485 44.8799 17.4885 48.0165C17.7237 49.1687 17.9116 50.3466 18.2159 51.4818C18.2811 51.7249 18.3498 51.8919 18.5507 52.056C18.7069 52.1836 18.8831 52.2701 19.064 52.356C20.365 52.2402 21.8637 51.9002 23.1807 51.6937C24.6209 51.4679 26.0615 51.3431 27.5062 51.1662C28.1509 51.0872 28.8185 50.9099 29.4638 50.882C29.8677 50.779 30.3086 50.7358 30.7208 50.6702L33.128 50.2892C35.0198 49.9898 36.9044 49.6334 38.8029 49.3788C38.9804 49.3174 39.1976 49.3103 39.3848 49.2852C38.831 50.0188 38.1161 50.6517 37.4095 51.2352C35.1171 53.1284 32.4606 54.5819 29.5489 55.269C29.0842 55.3787 27.0957 55.6434 26.9021 55.7645C26.4802 55.7521 26.0435 55.68 25.625 55.6251C24.5473 55.4841 23.4574 55.3609 22.3997 55.1055C18.9967 54.2842 15.0337 52.2335 12.3447 50.0108C10.7902 48.7258 9.37922 47.2665 7.84369 45.9559C7.04331 45.2727 6.16945 44.6792 5.3441 44.0276C4.30537 43.2076 3.41829 42.2995 2.61387 41.251C2.54481 41.1606 2.47679 41.0693 2.40998 40.9772C2.34308 40.8851 2.27739 40.7923 2.21281 40.6985C2.14824 40.6048 2.08478 40.5104 2.02245 40.4151C1.96012 40.3199 1.89906 40.2239 1.83904 40.1272C1.7791 40.0305 1.72028 39.9331 1.66273 39.8349C1.6051 39.7368 1.54875 39.638 1.49359 39.5384C1.43844 39.439 1.38447 39.3388 1.33171 39.238C1.27894 39.1372 1.22745 39.0357 1.17715 38.9336C1.12685 38.8316 1.07782 38.729 1.03006 38.6257C0.9823 38.5224 0.935737 38.4186 0.89052 38.3143C0.845228 38.2099 0.801281 38.105 0.758604 37.9995C0.715928 37.8942 0.674523 37.7882 0.634387 37.6818C0.594252 37.5753 0.555462 37.4683 0.517943 37.361C0.480424 37.2536 0.44425 37.1458 0.409346 37.0375C0.374443 36.9292 0.340885 36.8206 0.308597 36.7115C0.27631 36.6024 0.245442 36.493 0.215846 36.3831C0.186249 36.2733 0.157997 36.1632 0.131091 36.0526C0.104185 35.9422 0.0786237 35.8314 0.054408 35.7202C0.0301924 35.6091 0.00732207 35.4977 -0.0141282 35.386C-0.0356532 35.2743 -0.055758 35.1624 -0.0745177 35.0502C-0.0932773 34.9381 -0.110692 34.8257 -0.126761 34.7131C-0.14283 34.6005 -0.157479 34.4877 -0.170782 34.3748C-0.184086 34.2618 -0.19597 34.1488 -0.206583 34.0355C-0.217196 33.9222 -0.226314 33.8089 -0.234087 33.6954C-0.24186 33.582 -0.248287 33.4684 -0.253295 33.3548C-0.258302 33.2413 -0.261965 33.1276 -0.264207 33.0139C-0.266449 32.9002 -0.267346 32.7864 -0.266823 32.6727C-0.2663 32.559 -0.264431 32.4453 -0.261143 32.3316C-0.257854 32.218 -0.25322 32.1043 -0.247166 31.9907C-0.241112 31.8772 -0.233713 31.7637 -0.224894 31.6503C-0.216075 31.537 -0.20591 31.4237 -0.194325 31.3106C-0.182741 31.1974 -0.169811 31.0845 -0.155535 30.9716C-0.143951 30.8846 -0.131469 30.7976 -0.118091 30.7109C-0.104712 30.6242 -0.0904374 30.5375 -0.0751905 30.451C-0.0600184 30.3646 -0.0438746 30.2782 -0.0269088 30.1921C-0.00986812 30.106 0.00799477 30.02 0.0268292 29.9342C0.0456635 29.8485 0.0653201 29.7629 0.0859482 29.6775C0.106502 29.5922 0.128027 29.5071 0.150374 29.4221C0.172721 29.3372 0.195965 29.2525 0.220106 29.1681C0.244246 29.0837 0.269284 28.9995 0.295144 28.9156C0.321079 28.8317 0.347836 28.7481 0.375489 28.6648C0.403143 28.5814 0.431619 28.4983 0.461066 28.4156C0.490439 28.3328 0.520708 28.2503 0.5518 28.1682C0.582892 28.0861 0.61488 28.0043 0.647691 27.9229C0.680502 27.8414 0.714134 27.7603 0.748664 27.6796C0.783194 27.5988 0.818546 27.5184 0.85472 27.4384C0.890893 27.3584 0.927964 27.2787 0.965782 27.1994C1.0036 27.1202 1.04232 27.0414 1.08185 26.9629C1.12139 26.8844 1.16167 26.8064 1.20278 26.7288C1.24389 26.6512 1.28589 26.574 1.32864 26.4973C1.37139 26.4205 1.41497 26.3442 1.45929 26.2684C1.50361 26.1926 1.54875 26.1172 1.59472 26.0423C1.64061 25.9674 1.68732 25.893 1.73478 25.8191C1.78224 25.7452 1.83052 25.6717 1.87947 25.5988C1.9285 25.5259 1.97828 25.4535 2.0288 25.3816C2.07933 25.3097 2.1306 25.2384 2.18262 25.1676C2.23464 25.0968 2.2874 25.0265 2.34084 24.9568C2.39436 24.8871 2.44854 24.8179 2.50347 24.7493C2.55841 24.6807 2.61401 24.6127 2.67037 24.5453C2.72672 24.4779 2.78375 24.4111 2.84152 24.3448C2.8993 24.2785 2.95767 24.2129 3.01679 24.1479C3.07591 24.0829 3.1357 24.0184 3.19616 23.9547C3.25663 23.8909 3.31776 23.8277 3.3795 23.7652C3.44131 23.7027 3.50371 23.6409 3.5668 23.5796C4.11277 23.054 4.71614 22.6029 5.31854 22.1448C7.38083 20.7313 9.70829 20.0048 12.1985 19.894Z" fill="url(#paint2_linear_348_61174)"/>
<path id="Vector_11" d="M29.4652 50.8821C29.8692 50.7791 30.3101 50.7359 30.7223 50.6703L33.1295 50.2892C35.0212 49.9899 36.9058 49.6335 38.8044 49.3789C38.7422 49.4347 38.6926 49.4694 38.6118 49.4955C37.8596 49.7389 36.9735 49.8031 36.1919 49.9443C34.2979 50.2862 32.4381 50.6863 30.5175 50.8688C30.2504 50.8942 29.8814 50.969 29.6193 50.9373C29.5538 50.9294 29.5199 50.9148 29.4652 50.8821Z" fill="#E0875C"/>
<path id="Vector_12" d="M14.1952 41.5202C14.2495 41.5181 14.3185 41.5097 14.3714 41.5205C14.6096 41.569 14.6356 42.1803 14.6756 42.4081C14.9157 43.7739 15.1051 45.149 15.3335 46.5169C15.4931 47.4732 15.6469 48.4439 15.9516 49.367C16.1466 49.9574 16.4076 50.5348 16.775 51.0395C18.5057 53.4181 21.3795 53.4181 24.0396 53.1968C24.5133 53.1573 25.1898 52.9354 25.6333 53.0039C25.7242 53.0772 25.7129 53.0843 25.7301 53.2016C25.4676 53.3168 25.1519 53.3671 24.8704 53.412C22.7202 53.7548 19.6022 53.8061 17.7912 52.4876C17.0298 51.9333 16.3883 51.1257 15.9888 50.2762C15.2693 48.7462 15.0681 46.938 14.8 45.2816L14.1952 41.5202Z" fill="black"/>
<path id="Vector_13" d="M45.5991 3.2703C46.25 2.87066 46.8957 2.44775 47.5852 2.11627C50.6786 0.628894 54.4959 0.0125404 57.8614 0.807498C60.3353 1.39186 62.7069 2.77289 64.056 4.98281C65.6349 7.56941 65.4038 10.6419 64.7048 13.4631L63.5631 18.0544C62.4515 22.3726 61.5659 26.1185 62.8016 30.5191C62.8022 30.5309 62.8025 30.5427 62.8032 30.5544C62.8361 31.1204 63.0194 31.6945 63.0895 32.2604C63.3304 34.205 63.1028 36.322 61.7711 37.8555C61.7143 37.9205 61.6557 37.9841 61.5956 38.0463C61.5356 38.1085 61.4741 38.1692 61.4111 38.2284C61.3481 38.2877 61.2837 38.3453 61.2178 38.4014C61.152 38.4575 61.0849 38.5119 61.0164 38.5647C60.9479 38.6175 60.8781 38.6686 60.8072 38.7179C60.7362 38.7674 60.6641 38.815 60.5908 38.8609C60.5174 38.9068 60.443 38.9509 60.3676 38.9932C60.2921 39.0355 60.2156 39.0758 60.1382 39.1144C60.0607 39.1529 59.9824 39.1896 59.9032 39.2244C59.8239 39.2591 59.7439 39.2919 59.6631 39.3227C59.5822 39.3535 59.5007 39.3824 59.4185 39.4093C59.3362 39.4362 59.2534 39.461 59.1699 39.4839C59.0864 39.5067 59.0025 39.5275 58.9179 39.5463C58.8335 39.565 58.7486 39.5817 58.6633 39.5963C58.578 39.611 58.4924 39.6235 58.4065 39.634C58.3206 39.6445 58.2344 39.6528 58.1481 39.6591C57.3675 39.7091 56.6192 39.6113 55.8704 39.3933C55.665 39.3335 55.4508 39.2222 55.2465 39.1789C55.1051 38.7907 55.0612 38.2959 54.9891 37.8859C54.8517 37.0907 54.7103 36.2962 54.5648 35.5025L52.8198 25.9065L52.2859 22.7826C52.1746 22.1428 52.0844 21.4657 51.8896 20.8456L54.5714 17.9396C54.9261 17.548 55.2581 17.085 55.2163 16.5295C55.1958 16.2567 55.0967 15.9451 54.9372 15.7206C54.5351 15.1545 53.3439 14.1154 52.7873 13.5776C52.1554 12.9672 51.5456 12.2865 50.8657 11.7312C50.4946 11.4282 50.2023 11.3518 49.7248 11.398C49.5395 11.0927 49.331 10.8483 49.0402 10.6395C48.48 10.237 47.7644 10.0122 47.0792 9.96405C45.884 9.88008 44.5691 10.2068 43.3918 10.4123C41.8127 10.6879 40.235 10.9761 38.6528 11.2341C38.8423 10.7811 39.1101 10.3722 39.3732 9.95943C39.7389 9.92564 43.0534 9.39565 43.2297 9.30758C43.3182 9.26343 43.367 9.19989 43.4016 9.10914C43.3913 9.07043 43.3939 9.03285 43.356 9.01129C43.1315 8.88303 40.1514 9.46187 39.6275 9.55024C40.6662 7.77762 42.2533 5.98897 43.8145 4.65581C44.3883 4.16586 45.0091 3.73915 45.5991 3.2703Z" fill="url(#paint3_linear_348_61174)"/>
<path id="Vector_14" d="M38.6529 11.2343C40.235 10.9762 41.8128 10.6881 43.3919 10.4125C44.5692 10.2069 45.8841 9.88022 47.0792 9.96419C47.7644 10.0124 48.48 10.2371 49.0402 10.6396C49.3311 10.8485 49.5395 11.0928 49.7249 11.3982C50.2023 11.3519 50.4947 11.4284 50.8657 11.7314C51.5456 12.2866 52.1555 12.9674 52.7873 13.5777C53.3439 14.1155 54.5352 15.1546 54.9372 15.7207C55.0967 15.9452 55.1958 16.2569 55.2163 16.5297C55.2581 17.0851 54.9261 17.5481 54.5714 17.9398L51.8896 20.8457C52.0844 21.4659 52.1747 22.1429 52.286 22.7827L52.8198 25.9066L54.5648 35.5026C54.7103 36.2964 54.8517 37.0909 54.9891 37.8861C55.0612 38.2961 55.1051 38.7909 55.2465 39.179C55.375 39.7746 55.4903 40.3727 55.5925 40.9734C55.8631 42.4867 55.9579 43.6423 55.0923 45.0007C54.3871 46.1074 53.3459 46.792 52.0699 47.0649C50.5961 47.3801 49.0757 47.5657 47.589 47.8216L39.3864 49.2852C39.1993 49.3103 38.9821 49.3174 38.8046 49.3789C36.906 49.6335 35.0214 49.9898 33.1297 50.2892L30.7225 50.6703C30.3103 50.7358 29.8694 50.7791 29.4654 50.882C28.8202 50.9099 28.1525 51.0873 27.5078 51.1663C26.0631 51.3431 24.6225 51.4679 23.1824 51.6937C21.8654 51.9002 20.3666 52.2403 19.0656 52.3561C18.8848 52.2702 18.7086 52.1837 18.5523 52.056C18.3514 51.8919 18.2827 51.7249 18.2176 51.4818C17.9132 50.3466 17.7253 49.1687 17.4902 48.0165C16.8502 44.88 16.3116 41.7243 15.6781 38.5877C14.8119 34.3434 14.0001 30.0888 13.2424 25.8238L12.6076 22.4029C12.451 21.5712 12.2684 20.7387 12.2002 19.8941C12.1965 19.7432 12.1993 19.5924 12.2086 19.4418C12.218 19.2911 12.2339 19.1412 12.2563 18.992C12.2788 18.8427 12.3076 18.6947 12.3429 18.5479C12.3782 18.4012 12.4197 18.2562 12.4676 18.113C12.4904 18.0476 12.5148 17.9828 12.5407 17.9186C12.5667 17.8544 12.594 17.7908 12.6229 17.7279C12.6519 17.6649 12.6823 17.6027 12.7141 17.5412C12.746 17.4797 12.7793 17.4189 12.814 17.359C12.8488 17.2991 12.8849 17.24 12.9224 17.1818C12.9599 17.1235 12.9988 17.0662 13.0391 17.0098C13.0793 16.9533 13.1208 16.8979 13.1637 16.8435C13.2066 16.789 13.2507 16.7356 13.2961 16.6832C13.3415 16.6309 13.3881 16.5796 13.4359 16.5295C13.4837 16.4793 13.5327 16.4303 13.5829 16.3824C13.633 16.3345 13.6842 16.2878 13.7365 16.2424C13.7889 16.197 13.8423 16.1528 13.8968 16.1098C13.9512 16.0669 14.0066 16.0253 14.063 15.9849C14.1194 15.9446 14.1768 15.9056 14.2351 15.868C14.2933 15.8304 14.3524 15.7942 14.4123 15.7593C14.4724 15.7245 14.5331 15.6911 14.5946 15.6591C15.445 15.2278 16.4328 15.1179 17.3613 14.9515L19.6508 14.5443L25.0505 13.6088L33.5513 12.0958C34.1569 11.9891 36.8532 11.617 37.1603 11.4675C37.19 11.4214 37.2245 11.3555 37.2647 11.3191C37.287 11.299 37.3333 11.2658 37.3668 11.2648C37.3658 11.317 37.3659 11.3675 37.3678 11.4196C37.7131 11.4837 38.2962 11.3006 38.6529 11.2343Z" fill="black"/>
<path id="Vector_15" d="M45.5876 15.5743C46.3249 14.7984 47.087 14.0471 47.8191 13.2661C47.82 13.3456 47.8215 13.4249 47.8209 13.5044C47.82 13.6447 47.8346 13.7322 47.8988 13.8573C47.1796 14.5562 46.5303 15.3297 45.8422 16.0594C45.7955 15.9957 45.8098 16.023 45.7797 15.9532C45.7219 15.8194 45.6655 15.6977 45.5876 15.5743Z" fill="url(#paint4_linear_348_61174)"/>
<path id="Vector_16" d="M48.0268 25.0327L48.4732 27.1485C48.0395 27.8796 47.7481 28.7686 47.6347 29.6055C47.5931 29.621 47.5652 29.6324 47.5205 29.6346C47.2862 28.5363 47.0903 27.4137 46.8083 26.3278L48.0268 25.0327Z" fill="#FEFEFE"/>
<path id="Vector_17" d="M48.4064 24.6516C48.9378 24.1062 49.4251 23.5213 49.942 22.9624C50.089 23.6769 50.229 24.3928 50.3619 25.1101C50.1009 25.4416 49.8338 25.7715 49.5382 26.0735C49.339 26.2771 49.1034 26.4543 48.9321 26.681C48.8937 26.7317 48.9098 26.7121 48.8467 26.7578L48.4064 24.6516Z" fill="#FEFEFE"/>
<path id="Vector_18" d="M45.5876 15.5742C45.6654 15.6977 45.7219 15.8193 45.7796 15.9531C45.8098 16.0229 45.7955 15.9957 45.8422 16.0594L42.3277 19.7652C41.6818 20.4358 41.0124 21.0888 40.3816 21.7731C40.1432 21.7209 39.9104 21.6566 39.676 21.5885C40.5032 20.7893 41.2956 19.9468 42.1008 19.1254L45.5876 15.5742Z" fill="#FEFEFE"/>
<path id="Vector_19" d="M30.0916 42.4814C30.605 42.3727 31.139 42.3114 31.6579 42.2267L34.9481 41.6887C36.5954 41.4185 38.2424 41.0723 39.8957 40.8501C39.193 41.4134 38.3141 41.7853 37.4973 42.1548C37.245 42.2689 36.7585 42.4011 36.5705 42.5754C36.0645 42.752 34.6062 42.9864 34.033 43.0367L34.052 43.0066C33.9271 42.9105 32.97 42.9335 32.7355 42.9139C31.8527 42.8402 30.9435 42.7338 30.0916 42.4814Z" fill="#A0C5D5"/>
<path id="Vector_20" d="M23.4451 43.6232C25.6534 43.2012 27.8688 42.8205 30.0914 42.4814C30.9434 42.7338 31.8526 42.8402 32.7353 42.914C32.9699 42.9336 33.927 42.9105 34.0519 43.0067L34.0329 43.0367L29.0845 43.9112C27.6725 44.1577 26.2491 44.3824 24.8526 44.7076C24.4738 44.2969 23.667 43.9186 23.4451 43.6232Z" fill="#FEFEFE"/>
<path id="Vector_21" d="M48.4748 27.1489C49.1805 30.8821 49.865 34.6191 50.5281 38.3601C50.1004 38.4105 49.6225 38.1342 49.2263 38.2295L49.1737 38.3651C49.2015 37.4287 48.842 36.4169 48.6612 35.4991L47.522 29.635C47.5667 29.6328 47.5946 29.6214 47.6362 29.6059C47.7496 28.769 48.041 27.88 48.4748 27.1489Z" fill="#F9EBD6"/>
<path id="Vector_22" d="M47.819 13.2662C48.2903 12.6594 48.9722 11.7962 49.7777 11.6902C50.1822 11.637 50.4047 11.7495 50.7157 11.9975C51.3954 12.5397 52.0114 13.2392 52.6353 13.8515C53.2292 14.4345 54.2094 15.2847 54.6735 15.9088C54.8092 16.0913 54.8819 16.2832 54.9007 16.5104C54.9402 16.989 54.6983 17.3441 54.3943 17.6836C53.2336 18.9801 52.0051 20.2244 50.8301 21.509C49.6902 22.7552 48.5865 24.0684 47.3894 25.2573C47.335 24.9981 47.2824 24.7385 47.2318 24.4785C47.8991 23.6273 48.6851 22.8351 49.4222 22.0427L51.9503 19.2853C52.4148 18.7834 53.2515 17.9857 53.6101 17.4609C53.762 17.2386 53.8343 17.0391 53.8392 16.7681C53.8494 16.1968 53.4126 15.7767 53.0386 15.4005C52.6801 15.04 52.3053 14.6953 51.9444 14.337C51.474 13.8698 50.8054 13.0732 50.2386 12.7641C50.0711 12.6729 49.8604 12.6457 49.6723 12.6488C48.8922 12.6615 48.3857 13.3384 47.8987 13.8575C47.8345 13.7323 47.8199 13.6449 47.8208 13.5045C47.8214 13.425 47.8199 13.3457 47.819 13.2662Z" fill="#E2E2C8"/>
<path id="Vector_23" d="M49.1729 38.3653L49.2255 38.2296C49.6216 38.1343 50.0996 38.4107 50.5273 38.3603C50.6246 38.8722 50.8307 39.5203 50.495 39.9826C50.33 40.2099 50.1441 40.2853 49.8836 40.3565C49.2988 40.5164 48.6682 40.5806 48.069 40.6772L45.1227 41.1632L38.6637 42.2219C37.9818 42.3319 37.3002 42.4704 36.6173 42.57C36.6018 42.5722 36.5863 42.5738 36.5708 42.5756C36.7588 42.4014 37.2453 42.2691 37.4976 42.155C38.3144 41.7855 39.1933 41.4137 39.896 40.8504C40.5898 40.7062 41.3033 40.6131 42.0028 40.4977L45.9811 39.8404C46.7184 39.7184 47.5035 39.6411 48.2237 39.452C48.4211 39.4001 48.6072 39.332 48.7661 39.2004C49.0292 38.9824 49.1383 38.6955 49.1729 38.3653Z" fill="#FEFEFE"/>
<path id="Vector_24" d="M50.3629 25.1099C50.9249 28.0596 51.4627 31.0139 51.9764 33.9724C52.1924 35.1691 52.4537 36.3627 52.6478 37.5624C52.089 37.9456 51.5576 38.0164 50.9635 38.2694C50.8011 37.0863 50.5315 35.8991 50.3219 34.7218C49.8659 32.0605 49.3745 29.4058 48.8477 26.7576C48.9108 26.7119 48.8947 26.7315 48.9331 26.6808C49.1044 26.4541 49.34 26.2769 49.5392 26.0733C49.8347 25.7713 50.1019 25.4414 50.3629 25.1099Z" fill="#F9EBD6"/>
<path id="Vector_25" d="M17.8636 27.1114C17.5945 25.4272 17.3144 23.7448 17.0233 22.0642C16.8902 21.2883 16.7179 20.5056 16.6221 19.725C16.5775 19.3611 16.6343 19.0972 16.8712 18.8069C17.0297 18.6128 17.1991 18.509 17.4335 18.4236C17.8378 18.2764 18.3221 18.2467 18.7472 18.1745C19.4646 18.0526 20.1901 17.8956 20.9144 17.8296C20.8984 17.8447 20.8833 17.8605 20.8667 17.8748C20.6966 18.0216 20.2588 18.0898 20.0402 18.1597C19.0872 18.4642 17.8467 19.0961 17.6887 20.189C17.6263 20.6205 17.6417 21.0794 17.6295 21.5161C17.5831 23.1817 17.5543 25.2668 17.9678 26.886C18.0653 27.4763 18.2377 28.0637 18.3993 28.6393C18.9243 30.5098 19.6532 32.3355 20.0894 34.2281C20.3252 35.2506 20.2761 36.3058 20.396 37.3433C20.5618 38.7795 20.9411 40.1702 21.3324 41.5583C21.4008 41.8008 21.4837 42.3218 21.6659 42.4885L21.744 42.5026C21.8219 42.8587 21.9455 43.336 22.2699 43.5513C22.5778 43.7555 23.1014 43.6747 23.4455 43.6234C23.6675 43.9189 24.4742 44.2971 24.8531 44.7079C23.9501 44.8377 23.0575 45.0791 22.1586 45.2371C21.9063 45.2815 21.5446 45.3249 21.3273 45.1588C21.1937 45.0567 21.1003 44.9066 21.0493 44.7485C20.8616 44.1658 20.7771 43.5151 20.6582 42.9147C20.4152 41.6939 20.1806 40.4715 19.9546 39.2475L17.8636 27.1114Z" fill="#F9EBD6"/>
<path id="Vector_26" d="M38.032 12.3382C39.7396 12.0614 41.4429 11.76 43.1418 11.4343C44.2879 11.223 45.5416 10.8959 46.7063 10.9246C47.2804 10.9387 47.8762 11.0665 48.3484 11.4073C48.4747 11.4985 48.7096 11.6604 48.7663 11.8025L48.7349 11.8776C48.3935 11.979 47.8708 11.5427 47.5376 11.4324C47.0817 11.2815 46.5561 11.2171 46.0764 11.2453C45.2232 11.2954 44.3534 11.5304 43.5107 11.6777C41.6553 11.9974 39.8028 12.3338 37.9534 12.6867C34.186 13.2897 30.4381 14.018 26.6725 14.6313C24.3833 15.0044 22.0978 15.3984 19.8158 15.8131C18.5691 16.0309 17.2864 16.1884 16.0558 16.4823C15.1948 16.688 14.438 17.1629 13.9743 17.9302C13.9322 18.0001 13.8928 18.0716 13.8562 18.1445C13.8196 18.2175 13.7859 18.2918 13.755 18.3674C13.7241 18.4429 13.6962 18.5196 13.6713 18.5974C13.6465 18.6752 13.6246 18.7537 13.6059 18.8331C13.5871 18.9125 13.5714 18.9926 13.5589 19.0732C13.5463 19.1539 13.5369 19.2349 13.5307 19.3163C13.5244 19.3976 13.5213 19.4791 13.5214 19.5608C13.5215 19.6424 13.5247 19.7239 13.5311 19.8052C13.5675 20.2919 13.6858 20.7823 13.7776 21.2615L14.2099 23.5352L15.559 30.9474L17.5365 42.1963C17.8125 43.7135 18.0039 45.3149 18.3782 46.8054C18.6206 47.7703 19.0859 48.4996 19.9531 49.0138C19.5373 49.8471 19.265 50.667 19.0099 51.5587C18.8638 51.0062 18.7832 50.4298 18.6684 49.8691C18.4098 48.6289 18.16 47.3869 17.9189 46.1432C17.076 41.7281 16.2783 37.3049 15.5259 32.8735L13.9545 24.3322C13.7033 22.9749 13.3753 21.5981 13.2126 20.2294C13.0886 19.187 13.2297 18.2362 13.8999 17.3958C13.9554 17.3266 14.0133 17.2594 14.0736 17.1943C14.1339 17.1293 14.1965 17.0665 14.2614 17.006C14.3263 16.9454 14.3933 16.8873 14.4623 16.8315C14.5314 16.7758 14.6024 16.7226 14.6753 16.672C14.7481 16.6213 14.8228 16.5734 14.8992 16.5281C14.9756 16.4828 15.0534 16.4404 15.1329 16.4007C15.2123 16.3611 15.293 16.3243 15.3751 16.2904C15.4573 16.2565 15.5404 16.2256 15.6247 16.1977C16.4641 15.9285 17.4181 15.8807 18.2881 15.7361L23.317 14.8614L32.8864 13.199L35.9812 12.6628C36.6624 12.5451 37.3443 12.4117 38.032 12.3382Z" fill="#A0C5D5"/>
<path id="Vector_27" d="M45.475 27.766L46.4682 26.7236C46.7338 27.8946 46.924 29.0841 47.2069 30.2514C47.4806 31.7862 47.775 33.317 48.0902 34.8438C48.2867 35.7972 48.5368 36.7591 48.6705 37.7233C48.7203 38.0724 48.8034 38.5042 48.5639 38.8042C48.4509 38.9457 48.2297 38.9942 48.0611 39.0356C47.6344 39.1401 47.1868 39.1962 46.7533 39.2705L44.2966 39.6829L41.9924 40.0577C41.6202 40.1174 41.2381 40.1993 40.863 40.2325C40.9146 40.0058 41.5878 39.4455 41.7817 39.2632C42.5845 38.5085 43.2238 37.7199 43.7885 36.7735C45.2727 34.2861 46.1989 30.6124 45.475 27.766Z" fill="#FEFEFE"/>
<path id="Vector_28" d="M47.2058 30.2515C47.4794 31.7863 47.7738 33.3171 48.089 34.8439C48.2855 35.7973 48.5357 36.7592 48.6693 37.7234C48.6057 37.7178 48.5661 37.705 48.5121 37.67C47.5677 37.057 46.6322 35.7049 46.3866 34.6058C46.143 33.5153 46.6156 32.4849 46.8846 31.4539C46.9833 31.0755 46.9972 30.58 47.2058 30.2515Z" fill="#F9EBD6"/>
<path id="Vector_29" d="M39.6768 21.5889C39.9111 21.657 40.144 21.7212 40.3824 21.7734C38.5497 23.7624 36.6796 25.7158 34.7723 27.6336C34.3581 28.0484 33.7374 28.8077 33.2511 29.0783C33.0787 29.0716 32.9104 28.9306 32.7813 28.8245C32.2364 28.3771 31.7338 27.837 31.2236 27.349L28.3309 24.6074C27.9784 24.275 27.2849 23.4785 26.849 23.355C26.6624 23.3022 26.5337 23.4288 26.4049 23.5496C25.6532 24.2547 24.9576 25.0513 24.2383 25.7926L22.8115 27.2743C22.5741 27.5225 22.3142 27.7659 22.0989 28.0325C22.0378 28.1082 21.9846 28.1864 21.9775 28.2866C21.9653 28.4615 22.0958 28.5814 22.2096 28.6955C22.7433 29.2309 23.3571 29.7177 23.917 30.2304C25.4753 31.6638 27.0479 33.0814 28.6349 34.4833C29.5481 35.2978 30.4384 36.1356 31.3423 36.96C31.7544 37.3357 32.1603 37.7363 32.5971 38.0829C32.8076 38.2499 33.0036 38.4028 33.2846 38.3975C33.5036 38.3933 33.7358 38.328 33.9134 38.1976C34.3151 37.9026 34.6525 37.4955 35.0031 37.1428C35.7022 36.4458 36.3958 35.7434 37.0838 35.0357L42.4444 29.5108C43.3702 28.5473 44.2679 27.5478 45.2147 26.6062C45.2825 26.8644 45.3159 27.147 45.3955 27.3979C44.5898 28.3246 43.7111 29.2093 42.8601 30.095L38.8599 34.2442C37.9125 35.2372 36.9595 36.2247 36.0007 37.2068C35.4987 37.7204 34.9987 38.2886 34.4451 38.7447C34.2036 38.9438 33.8932 39.0826 33.5837 39.136C33.5591 39.1401 33.5344 39.1436 33.5097 39.1465C33.485 39.1494 33.4601 39.1518 33.4353 39.1534C33.4104 39.155 33.3855 39.1561 33.3606 39.1565C33.3357 39.1569 33.3107 39.1567 33.2859 39.1559C33.261 39.155 33.2362 39.1536 33.2113 39.1515C33.1865 39.1494 33.1617 39.1468 33.137 39.1435C33.1123 39.1401 33.0877 39.1362 33.0632 39.1317C33.0387 39.1271 33.0143 39.122 32.9901 39.1163C32.9658 39.1105 32.9418 39.1041 32.9178 39.0972C32.8939 39.0902 32.8702 39.0826 32.8466 39.0745C32.8231 39.0664 32.7997 39.0576 32.7767 39.0482C32.7536 39.0389 32.7308 39.0291 32.7081 39.0186C32.6855 39.0081 32.6632 38.9972 32.6411 38.9856C32.6191 38.974 32.5973 38.9619 32.5758 38.9492C32.5544 38.9365 32.5333 38.9233 32.5125 38.9096C32.4917 38.8959 32.4713 38.8817 32.4512 38.867C31.7561 38.3622 31.1274 37.7275 30.4848 37.1552L26.6703 33.7229L23.4881 30.8343C22.8621 30.2684 22.1825 29.7167 21.6116 29.0957C21.4332 28.9016 21.2977 28.689 21.264 28.4229C21.2197 28.0742 21.4305 27.7287 21.6428 27.4692C21.9079 27.1452 22.2174 26.847 22.5057 26.5432C23.1182 25.8989 23.7341 25.2579 24.3535 24.6201C24.8713 24.082 25.5499 23.2525 26.1187 22.8108C26.3019 22.6685 26.4819 22.5986 26.7142 22.5815C26.9476 22.5644 27.1759 22.6108 27.3703 22.7434C27.9119 23.1129 28.7154 23.9784 29.224 24.4641C30.5413 25.7223 31.8556 26.9944 33.205 28.2179C33.5015 27.9725 33.7697 27.6654 34.0371 27.3883L35.3713 26.0031C36.7988 24.5242 38.2339 23.0528 39.6768 21.5889Z" fill="#E2E2C8"/>
<path id="Vector_30" d="M22.4451 26.141C22.509 25.8752 22.6962 25.6218 22.8381 25.3893C23.5572 24.2101 24.239 23.4113 25.2559 22.4819C28.0816 19.8994 32.4427 19.3213 36.0046 20.4876C36.8528 20.7654 38.4216 21.5619 39.2108 21.5919C39.228 21.5925 39.2452 21.5928 39.2624 21.5933C38.2287 22.788 36.9666 23.9401 35.8516 25.0746L34.0683 26.9209C33.7814 27.2161 33.4991 27.5335 33.1905 27.8054L29.1372 23.9532C28.6664 23.5107 27.9611 22.7449 27.4391 22.4198C27.2394 22.2953 26.9738 22.2665 26.7434 22.2768C26.512 22.287 26.27 22.3363 26.0702 22.4581C25.7507 22.6532 25.4595 23.0219 25.1997 23.291C24.6304 23.8758 24.065 24.4642 23.5035 25.0564C23.1647 25.4139 22.8249 25.8301 22.4451 26.141Z" fill="#AECCE7"/>
<path id="Vector_31" d="M20.9151 17.8296C21.8536 17.6024 22.8516 17.4899 23.8064 17.3298C25.7027 17.0229 27.596 16.6974 29.486 16.3535L38.6611 14.7065C40.4645 14.3769 42.309 13.9644 44.1199 13.7154C44.4482 13.6703 44.8609 13.6011 45.1615 13.7756C45.5004 13.9724 45.59 14.3742 45.6708 14.7267L45.7292 14.9872C45.1455 15.5906 44.5208 16.17 43.9759 16.8083C43.8804 16.3665 43.7217 15.9311 43.3209 15.6733C43.0132 15.4755 42.7147 15.5026 42.3673 15.54C40.9784 15.6897 39.586 15.9851 38.2102 16.2273C35.8913 16.6399 33.5698 17.0374 31.2457 17.42L23.5175 18.7018L21.1307 19.1003C20.577 19.1876 19.997 19.2461 19.4538 19.3833C19.0988 19.4731 18.7674 19.5904 18.57 19.9213C18.4309 20.1545 18.3983 20.3931 18.4204 20.6597C18.4714 21.2734 18.6207 21.8996 18.7222 22.5084L19.323 26.1694C19.8482 29.4305 20.2792 32.7035 20.7741 35.9685C21.008 37.4492 21.2337 38.9311 21.4512 40.4142C21.5523 41.1049 21.6835 41.8076 21.7448 42.5025L21.6666 42.4884C21.4845 42.3218 21.4016 41.8008 21.3332 41.5583C20.9419 40.1702 20.5626 38.7794 20.3967 37.3433C20.2769 36.3057 20.326 35.2506 20.0902 34.228C19.654 32.3355 18.925 30.5097 18.4001 28.6393C18.2385 28.0636 18.0661 27.4763 17.9686 26.886C17.5551 25.2667 17.5839 23.1816 17.6303 21.5161C17.6425 21.0794 17.6271 20.6205 17.6895 20.1889C17.8474 19.096 19.088 18.4642 20.041 18.1596C20.2596 18.0897 20.6974 18.0216 20.8675 17.8747C20.884 17.8605 20.8992 17.8446 20.9151 17.8296Z" fill="#FEFEFE"/>
<path id="Vector_32" d="M50.9624 38.2699C51.5565 38.0169 52.0879 37.9461 52.6467 37.563C52.8305 38.5989 53.0203 39.6338 53.2162 40.6675C53.301 41.1232 53.4405 41.6109 53.4671 42.0728C53.4785 42.2702 53.4737 42.545 53.362 42.7175C53.2631 42.8706 53.0831 42.9541 52.9139 43.0011C52.3785 43.15 51.8082 43.2182 51.2606 43.3131L48.5 43.7999C45.5978 44.3447 42.6897 44.8561 39.7758 45.3343L30.5 46.8677L30.3238 46.8412C29.8404 46.7664 29.3643 46.6723 28.8941 46.5362C28.3719 46.3851 25.667 45.4249 25.3901 45.048C27.5491 44.5625 29.7593 44.2158 31.939 43.8291C35.7109 43.1561 39.4877 42.513 43.2697 41.8997C45.3736 41.5598 47.5841 41.2577 49.6629 40.8392C49.9446 40.7825 50.3793 40.707 50.5955 40.5098C50.6097 40.4969 50.6232 40.4831 50.6372 40.4698C50.7374 40.3745 50.8316 40.2796 50.9085 40.1638C51.2901 39.5889 51.0905 38.891 50.9624 38.2699Z" fill="#FEFEFE"/>
<path id="Vector_33" d="M50.9725 21.8184C51.0519 21.8983 51.0606 22.0221 51.0817 22.1289C51.3838 23.6574 51.6298 25.1969 51.9055 26.7302L53.0408 32.9174L54.6805 41.7135C54.8823 42.8504 54.7565 43.8666 54.0735 44.8259C54.0453 44.8657 54.0164 44.9049 53.9867 44.9436C53.9571 44.9823 53.9266 45.0203 53.8953 45.0577C53.8642 45.0952 53.8322 45.132 53.7995 45.1682C53.7668 45.2043 53.7334 45.2399 53.6994 45.2748C53.6652 45.3096 53.6304 45.3439 53.595 45.3774C53.5595 45.4108 53.5234 45.4436 53.4866 45.4756C53.4499 45.5077 53.4126 45.539 53.3745 45.5696C53.3365 45.6002 53.2979 45.63 53.2588 45.659C53.2195 45.6881 53.1798 45.7164 53.1395 45.7438C53.0992 45.7713 53.0583 45.798 53.017 45.8238C52.9756 45.8497 52.9337 45.8747 52.8913 45.8989C52.849 45.9232 52.8061 45.9465 52.7629 45.969C52.7196 45.9915 52.6758 46.0131 52.6316 46.0339C52.5874 46.0547 52.5429 46.0746 52.498 46.0936C52.4531 46.1126 52.4077 46.1307 52.362 46.1479C52.3164 46.1652 52.2704 46.1814 52.2241 46.1969C51.7234 46.3609 51.1835 46.4307 50.6649 46.5221L48.3396 46.9298C46.1719 47.327 44.0003 47.7021 41.8249 48.0551C40.563 48.2559 39.2956 48.4237 38.0323 48.6157C31.932 49.605 25.8402 50.6445 19.7571 51.7343C19.7061 51.7396 19.6542 51.7387 19.6029 51.7398L19.5835 51.6926C19.6849 51.1979 20.1923 50.0747 20.4677 49.6466C20.5478 49.5221 20.6544 49.4258 20.7651 49.3288C20.8725 49.3193 20.9799 49.3091 21.0873 49.2982C22.3967 49.1637 23.717 48.8565 25.0191 48.6468L35.3555 46.9466C39.6454 46.2963 43.9289 45.6061 48.2058 44.876L51.3262 44.3175C51.8814 44.2185 52.4546 44.1518 53.0008 44.0108C53.4287 43.9004 53.8192 43.6964 54.0961 43.3428C54.307 43.0733 54.4363 42.7741 54.4322 42.4282C54.4255 41.8616 54.2844 41.2499 54.1828 40.6933L53.6268 37.7376L51.822 27.7564L51.1785 24.1838C51.0566 23.5046 50.8903 22.8051 50.8307 22.1183C50.8177 21.9688 50.8839 21.9241 50.9725 21.8184Z" fill="url(#paint5_linear_348_61174)"/>
<path id="Vector_34" d="M30.5004 46.8674C28.2416 47.2027 25.9923 47.6294 23.7421 48.0187C22.9854 48.1497 21.7879 48.4618 21.0755 48.4558C21.0326 48.4557 20.9896 48.454 20.9467 48.4506C20.9038 48.4473 20.8611 48.4423 20.8186 48.4357C20.776 48.429 20.7339 48.4207 20.692 48.4109C20.6501 48.4011 20.6087 48.3896 20.5677 48.3766C20.5267 48.3635 20.4863 48.349 20.4464 48.3329C20.4065 48.3168 20.3673 48.2992 20.3288 48.28C20.2903 48.2609 20.2526 48.2404 20.2157 48.2184C20.1787 48.1964 20.1426 48.173 20.1075 48.1483C19.483 47.7162 19.2605 46.7173 19.1269 46.022C18.9292 44.9927 18.7898 43.9512 18.6073 42.919L16.3701 30.1386C15.9207 27.7516 15.4867 25.3618 15.0683 22.9692L14.6863 20.843C14.6127 20.4319 14.5087 19.999 14.4888 19.5818C14.4662 19.1093 14.6653 18.5774 14.9388 18.193C15.2068 17.8162 15.6171 17.5589 16.0595 17.4358C16.5277 17.3054 17.0224 17.2471 17.5016 17.1687L19.5986 16.8161L26.711 15.6108L39.4896 13.3848C41.3087 13.0641 43.1252 12.7225 44.9479 12.4236C46.0756 12.2388 46.8663 12.1263 47.8507 12.8321C47.2558 13.4285 46.6622 14.0223 46.0839 14.6351C46.0245 14.2102 45.8812 13.7427 45.5388 13.46C45.203 13.1827 44.8075 13.1942 44.3985 13.2431C43.7353 13.3223 43.0692 13.4628 42.412 13.5818L39.0679 14.1844L28.5031 16.0237L21.1864 17.3183C20.0006 17.5209 18.4271 17.6795 17.3025 18.0011C16.9667 18.0971 16.619 18.3734 16.4125 18.6523C16.1504 19.0063 16.1297 19.4304 16.1884 19.8482C16.4387 21.6312 16.8041 23.4037 17.0942 25.1814C17.7822 29.4642 18.5156 33.7393 19.2945 38.0067C19.6016 39.6314 19.8889 41.2582 20.2145 42.8795C20.3467 43.538 20.4336 44.2341 20.6337 44.8747C20.7208 45.1536 20.852 45.3656 21.0934 45.5388C21.23 45.6369 21.3838 45.7074 21.5529 45.7215C22.1245 45.7689 22.7797 45.5657 23.3359 45.4523C24.0191 45.3089 24.704 45.1741 25.3905 45.0478C25.6674 45.4247 28.3724 46.3848 28.8945 46.536C29.3647 46.6721 29.8408 46.7662 30.3243 46.8409L30.5004 46.8674Z" fill="#F9EBD6"/>
<path id="Vector_35" d="M29.2499 42.1788C28.0515 42.4023 26.8421 42.5756 25.6411 42.7858C24.7895 42.9349 23.9096 43.1537 23.0496 43.228C22.888 43.242 22.7348 43.2415 22.5844 43.1746C22.4147 43.0992 22.3256 42.9857 22.2626 42.8136C22.1513 42.5092 22.1495 42.1486 22.0985 41.8284C21.9293 40.7678 21.7837 39.705 21.6257 38.6428L19.9495 27.3762L19.1733 22.519C19.066 21.859 18.8413 21.1245 18.8564 20.4603C18.8588 20.3577 18.8656 20.2594 18.9133 20.1667C19.0049 19.9889 19.1594 19.8837 19.3493 19.8324C19.666 19.7469 20.0175 19.7177 20.3424 19.6684L22.1433 19.3935L27.7549 18.479L36.2661 17.042C38.2431 16.693 40.2358 16.2784 42.2258 16.0171C42.5117 15.9796 42.8643 15.9307 43.1225 16.0855C43.4639 16.2903 43.5644 16.6826 43.648 17.0432C43.2909 17.5863 42.6377 18.1422 42.1758 18.6097C41.1917 19.5915 40.2208 20.5862 39.2632 21.5936C39.246 21.5931 39.2288 21.5928 39.2116 21.5922C38.4224 21.5622 36.8536 20.7657 36.0054 20.4879C32.4435 19.3215 28.0824 19.8997 25.2568 22.4822C24.2398 23.4116 23.558 24.2104 22.8389 25.3895C22.697 25.6221 22.5098 25.8755 22.4459 26.1413C21.8863 26.7602 20.9169 27.4767 20.9778 28.3937C21.0089 28.8643 21.2902 29.2199 21.6139 29.537C21.5696 30.2289 21.5039 30.9288 21.5255 31.6223C21.6092 34.3082 22.5402 36.9358 24.3338 38.961C24.4538 39.094 24.577 39.2242 24.7032 39.3513C24.8295 39.4785 24.9587 39.6026 25.0909 39.7237C25.2231 39.8447 25.358 39.9626 25.4959 40.0772C25.6337 40.1918 25.7741 40.3031 25.9172 40.4111C26.0604 40.519 26.206 40.6235 26.3541 40.7245C26.5022 40.8256 26.6527 40.923 26.8054 41.0169C26.9582 41.1108 27.1131 41.201 27.2702 41.2875C27.4272 41.374 27.5862 41.4567 27.7473 41.5357C27.9275 41.6241 29.2238 42.1088 29.2673 42.1537L29.2499 42.1788Z" fill="#FEFEFE"/>
<path id="Vector_36" d="M45.4749 27.7661C46.1988 30.6126 45.2727 34.2863 43.7884 36.7737C43.2237 37.7201 42.5844 38.5087 41.7816 39.2634C41.5877 39.4456 40.9145 40.0059 40.863 40.2326C40.1703 40.3682 39.4676 40.4666 38.7714 40.5855C36.8654 40.9134 34.9572 41.2283 33.0469 41.5304L30.4675 41.9681C30.0771 42.0357 29.6421 42.1539 29.2501 42.1784L29.2675 42.1533C29.224 42.1085 27.9277 41.6237 27.7475 41.5353C27.5864 41.4563 27.4274 41.3736 27.2704 41.2871C27.1133 41.2006 26.9584 41.1104 26.8056 41.0165C26.6529 40.9227 26.5024 40.8252 26.3543 40.7241C26.2062 40.6231 26.0606 40.5186 25.9174 40.4107C25.7743 40.3027 25.6339 40.1915 25.496 40.0768C25.3582 39.9622 25.2232 39.8443 25.0911 39.7233C24.9589 39.6023 24.8297 39.4782 24.7034 39.3509C24.5772 39.2238 24.454 39.0937 24.334 38.9606C22.5404 36.9354 21.6094 34.3078 21.5257 31.622C21.5041 30.9284 21.5698 30.2285 21.6141 29.5366L29.4694 36.6336L31.2711 38.2726C31.6041 38.5757 31.9408 38.9273 32.3222 39.1685C32.6476 39.3744 33.0235 39.4594 33.4072 39.4426C33.8055 39.4251 34.2146 39.2942 34.5374 39.0589C34.9974 38.7235 35.3887 38.2557 35.7862 37.8481L37.91 35.6558C40.4547 33.048 42.9764 30.418 45.4749 27.7661Z" fill="#AECCE7"/>
<path id="Vector_37" d="M47.8999 13.8574C48.3869 13.3383 48.8934 12.6614 49.6734 12.6487C49.8615 12.6456 50.0722 12.6728 50.2397 12.764C50.8066 13.0731 51.4752 13.8697 51.9455 14.3369C52.3064 14.6952 52.6812 15.0399 53.0398 15.4004C53.4137 15.7766 53.8505 16.1967 53.8403 16.768C53.8354 17.039 53.7631 17.2385 53.6112 17.4608C53.2526 17.9855 52.4159 18.7833 51.9514 19.2851L49.4233 22.0426C48.6863 22.835 47.9002 23.6272 47.233 24.4784C47.2836 24.7384 47.3361 24.9979 47.3905 25.2572L45.3958 27.3977C45.3162 27.1467 45.2828 26.8641 45.215 26.6059C44.2683 27.5476 43.3705 28.547 42.4447 29.5106L37.0841 35.0354C36.3961 35.7431 35.7025 36.4456 35.0035 37.1425C34.6529 37.4952 34.3154 37.9023 33.9138 38.1973C33.7361 38.3277 33.5039 38.3931 33.2849 38.3972C33.004 38.4025 32.8079 38.2496 32.5975 38.0826C32.1606 37.736 31.7547 37.3354 31.3426 36.9597C30.4387 36.1353 29.5484 35.2975 28.6352 34.483C27.0483 33.0812 25.4756 31.6635 23.9173 30.2301C23.3574 29.7174 22.7436 29.2306 22.2099 28.6952C22.0961 28.5811 21.9656 28.4612 21.9779 28.2863C21.9849 28.1861 22.0381 28.1079 22.0992 28.0322C22.3146 27.7656 22.5744 27.5222 22.8118 27.274L24.2386 25.7923C24.9579 25.051 25.6535 24.2544 26.4052 23.5493C26.534 23.4285 26.6627 23.3019 26.8493 23.3547C27.2853 23.4782 27.9788 24.2747 28.3312 24.6071L31.2239 27.3487C31.7341 27.8367 32.2368 28.3768 32.7816 28.8243C32.9108 28.9303 33.079 29.0713 33.2514 29.078C33.7378 28.8074 34.3584 28.0481 34.7727 27.6333C36.6799 25.7155 38.55 23.7621 40.3827 21.7732C41.0135 21.0889 41.6829 20.4358 42.3288 19.7652L45.8432 16.0594C46.5313 15.3297 47.1806 14.5563 47.8999 13.8574Z" fill="black"/>
<path id="Vector_38" d="M45.2139 26.606C45.9047 25.9178 46.5646 25.1899 47.2318 24.4785C47.2824 24.7385 47.335 24.9981 47.3894 25.2573L45.3947 27.3978C45.3151 27.1468 45.2817 26.8642 45.2139 26.606Z" fill="#FEFEFE"/>
<path id="Vector_39" d="M45.8519 16.4966C46.257 18.1732 46.4766 19.922 46.7585 21.6243C46.8927 22.4353 47.1148 23.2414 47.2085 24.0571C46.4829 24.8102 45.7681 25.5735 45.0645 26.347L44.8961 25.9924C44.854 25.9042 44.8104 25.8167 44.7653 25.7299C44.7203 25.643 44.6738 25.5569 44.6259 25.4717C44.578 25.3864 44.5287 25.3019 44.478 25.2183C44.4272 25.1346 44.3752 25.0518 44.3218 24.9699C44.2683 24.8879 44.2135 24.8069 44.1574 24.7268C44.1013 24.6466 44.0438 24.5674 43.9851 24.4892C43.9263 24.411 43.8663 24.3338 43.8049 24.2575C43.7437 24.1812 43.6811 24.106 43.6173 24.0317C43.5535 23.9575 43.4885 23.8845 43.4223 23.8124C43.3561 23.7403 43.2886 23.6694 43.22 23.5996C43.1515 23.5297 43.0818 23.461 43.0109 23.3935C42.9401 23.326 42.8681 23.2596 42.7951 23.1945C42.722 23.1293 42.6479 23.0654 42.5727 23.0027C42.4976 22.94 42.4214 22.8785 42.3442 22.8183C42.267 22.7581 42.1888 22.6992 42.1097 22.6415C42.0305 22.5839 41.9504 22.5276 41.8694 22.4726C41.5171 22.2314 41.1561 22.0005 40.7509 21.8593C41.2657 21.3381 41.765 20.8002 42.27 20.2693L43.895 18.5593C44.5137 17.8473 45.2113 17.1914 45.8519 16.4966Z" fill="#FEFEFE"/>
<path id="Vector_40" d="M42.2706 20.2696L43.8956 18.5596C43.9837 18.6299 44.0649 18.6981 44.1414 18.781C44.1175 19.0948 43.6767 19.4288 43.4519 19.6216C43.1372 19.8915 42.7119 20.2951 42.2706 20.2696Z" fill="#F9EBD6"/>
<path id="Vector_41" d="M48.3915 13.7809C48.7643 13.3884 49.1358 12.9293 49.7351 12.9478C49.9511 12.9545 50.1943 13.1293 50.3645 13.258C50.888 13.6536 51.3527 14.1754 51.8236 14.634C52.3154 15.1129 52.8555 15.5829 53.3019 16.1037C53.4989 16.3335 53.58 16.5746 53.5463 16.8802C53.5235 17.0869 53.4104 17.2486 53.2881 17.4108C52.9658 17.8382 52.5423 18.2187 52.1723 18.6071C51.4188 19.3983 50.6415 20.2036 49.9373 21.0385C49.004 22.0182 48.1062 23.044 47.2094 24.0573C47.1157 23.2416 46.8936 22.4355 46.7594 21.6245C46.4775 19.9222 46.2579 18.1733 45.8528 16.4968C46.1265 16.1534 46.459 15.8311 46.7589 15.5085C47.2956 14.9256 47.8397 14.3497 48.3915 13.7809Z" fill="#BDF0E6"/>
<path id="Vector_42" d="M26.8054 23.5812C27.3495 24.0262 27.8393 24.5577 28.3493 25.0423C29.3806 26.029 30.4176 27.0097 31.4603 27.9845C31.8955 28.3944 32.3219 28.9095 32.8086 29.2501C32.9288 29.3341 33.0534 29.3822 33.2014 29.3807C33.3935 29.3787 33.5347 29.2922 33.6786 29.1736C33.9902 28.9167 34.2613 28.5905 34.5395 28.2981L35.7395 27.0606L40.75 21.8594C41.1552 22.0005 41.5162 22.2314 41.8686 22.4727C41.9496 22.5276 42.0297 22.5839 42.1089 22.6416C42.188 22.6992 42.2662 22.7581 42.3434 22.8183C42.4206 22.8785 42.4967 22.94 42.5719 23.0027C42.6471 23.0655 42.7212 23.1294 42.7942 23.1945C42.8672 23.2596 42.9392 23.326 43.0101 23.3936C43.0809 23.4611 43.1506 23.5298 43.2192 23.5996C43.2878 23.6694 43.3552 23.7404 43.4214 23.8125C43.4876 23.8845 43.5527 23.9576 43.6164 24.0318C43.6803 24.106 43.7428 24.1812 43.8041 24.2575C43.8655 24.3338 43.9255 24.411 43.9842 24.4892C44.043 24.5674 44.1004 24.6466 44.1566 24.7268C44.2127 24.807 44.2675 24.888 44.3209 24.9699C44.3744 25.0519 44.4264 25.1347 44.4771 25.2183C44.5279 25.302 44.5771 25.3865 44.625 25.4717C44.6729 25.557 44.7194 25.643 44.7645 25.7299C44.8096 25.8167 44.8531 25.9043 44.8953 25.9925L45.0636 26.3471C42.5466 28.9898 40.0118 31.6153 37.4592 34.2237L35.0407 36.7011C34.6329 37.1152 34.228 37.5895 33.7679 37.9443C33.6231 38.0559 33.4533 38.0983 33.2726 38.1054C33.0813 38.1128 32.7958 37.8512 32.6503 37.7299C31.3471 36.6433 30.1359 35.4323 28.8717 34.2994C26.6579 32.3155 24.3752 30.3442 22.2136 28.3085C22.6979 27.8742 23.1372 27.376 23.5866 26.9058C24.2765 26.1798 24.9703 25.4576 25.668 24.739C26.0398 24.3516 26.4014 23.9345 26.8054 23.5812Z" fill="#BDF0E6"/>
</g>
<defs>
<linearGradient id="paint0_linear_348_61174" x1="46.2526" y1="30.5195" x2="46.2526" y2="59.6408" gradientUnits="userSpaceOnUse">
<stop stop-color="#E0875C"/>
<stop offset="1" stop-color="#D9E5D3"/>
</linearGradient>
<linearGradient id="paint1_linear_348_61174" x1="25.4585" y1="0.66748" x2="25.4585" y2="22.1448" gradientUnits="userSpaceOnUse">
<stop stop-color="#E0875C"/>
<stop offset="1" stop-color="#D9E5D3"/>
</linearGradient>
<linearGradient id="paint2_linear_348_61174" x1="19.5589" y1="19.894" x2="19.5589" y2="55.7645" gradientUnits="userSpaceOnUse">
<stop stop-color="#F8DAB7"/>
<stop offset="1" stop-color="#B9F1E9"/>
</linearGradient>
<linearGradient id="paint3_linear_348_61174" x1="51.9474" y1="0.458496" x2="51.9474" y2="39.6719" gradientUnits="userSpaceOnUse">
<stop stop-color="#F8DAB7"/>
<stop offset="1" stop-color="#B9F1E9"/>
</linearGradient>
<linearGradient id="paint4_linear_348_61174" x1="46.292" y1="16.0592" x2="47.2089" y2="13.3173" gradientUnits="userSpaceOnUse">
<stop stop-color="#D4D8CA"/>
<stop offset="1" stop-color="#FAFCF6"/>
</linearGradient>
<linearGradient id="paint5_linear_348_61174" x1="32.4892" y1="27.5427" x2="39.3047" y2="50.0271" gradientUnits="userSpaceOnUse">
<stop stop-color="#A7CBDA"/>
<stop offset="1" stop-color="#BFDFDD"/>
</linearGradient>
<clipPath id="clip0_348_61174">
<rect width="65.6" height="60" fill="white"/>
</clipPath>
</defs>
</svg>
