<?xml version="1.0" encoding="UTF-8"?>
<svg version="1.1" xmlns="http://www.w3.org/2000/svg" width="568" height="832">
    <path
        d="M0 0 C187.44 0 374.88 0 568 0 C568 274.56 568 549.12 568 832 C380.56 832 193.12 832 0 832 C0 557.44 0 282.88 0 0 Z "
        fill="#FEFEFE" transform="translate(0,0)" />
    <path
        d="M0 0 C1.02867187 0.2784375 2.05734375 0.556875 3.1171875 0.84375 C16.57746723 4.8993148 28.59286532 11.43893724 38.44921875 21.484375 C39.06539062 22.11206787 39.6815625 22.73976074 40.31640625 23.38647461 C41.54060476 24.64661319 42.75341967 25.91793701 43.953125 27.20141602 C47.42748959 30.82169997 49.98754145 32.77473235 55 34 C56.57705405 35.57705405 56.07871332 37.30468893 56.125 39.5 C56.55134342 44.85679883 58.08352138 48.98067881 60.25 53.8125 C65.02222409 64.55338222 67.32164185 75.89640145 69.44555664 87.41674805 C70.44455562 92.52052881 72.03697142 96.33875125 74.8125 100.8125 C96.8526718 137.86769343 101.02731961 193.41598465 90.48266602 235.04223633 C89.68912355 238.26096018 89.55224641 240.70056987 90 244 C92.27456246 245.81901284 94.06241219 246.92947963 96.625 248.1875 C118.97670711 260.39072724 134.61299728 280.6448034 142.35369492 304.78019524 C145.94301698 317.10811035 146.45658981 329.87385886 146.3984375 342.62109375 C146.40046636 344.22485994 146.40338449 345.82862522 146.40713501 347.43238831 C146.41150112 350.74904399 146.40530258 354.06545349 146.39111328 357.38208008 C146.37381251 361.6323033 146.38402812 365.88196671 146.40183067 370.13217068 C146.41264619 373.42381561 146.40923614 376.71532631 146.4014473 380.00697517 C146.3994499 381.5758782 146.40188837 383.14479349 146.40888596 384.71368217 C146.41648679 386.89075368 146.40492655 389.06689462 146.38818359 391.24389648 C146.38579681 392.47978012 146.38341003 393.71566376 146.38095093 394.98899841 C146 398 146 398 144.63198853 399.89491272 C142.25893507 401.50180587 140.79730362 401.48952813 138 401 C135.53175292 398.61246508 135.02162872 397.18916591 134.62818909 393.74812317 C134.62915085 392.45814926 134.63011261 391.16817535 134.63110352 389.83911133 C134.6254538 388.76728859 134.6254538 388.76728859 134.61968994 387.67381287 C134.61326149 386.12315493 134.61358377 384.57245759 134.61987495 383.02179909 C134.62902192 380.55078298 134.61871456 378.08052022 134.60325623 375.60954285 C134.56329717 368.58418973 134.56192762 361.55889518 134.56420898 354.53344727 C134.56426074 350.22979265 134.54475887 345.92653636 134.51487541 341.62299156 C134.50423432 339.21865748 134.51607853 336.81514835 134.52870178 334.4108429 C134.47250766 310.6558585 126.73089791 289.79308704 110.33203125 272.3046875 C95.71305947 257.85712745 78.60591357 251.04054136 58.85742188 246.73388672 C48.41964663 244.33263063 37.37181302 240.79928707 27.83325195 235.88330078 C26.04792142 234.84882551 26.04792142 234.84882551 24.0625 235.0625 C21.08605437 236.41542983 19.29385463 238.68287438 17 241 C0.27949401 255.99965514 -17.79726779 260.88301881 -39.86425781 260.12304688 C-55.05116856 259.24808082 -70.28079492 250.43810705 -81 240 C-81.61359375 239.06542969 -82.2271875 238.13085938 -82.859375 237.16796875 C-83.91898438 236.09482422 -83.91898438 236.09482422 -85 235 C-89.91859545 235.28679857 -93.54849035 236.53401597 -97.88671875 238.78515625 C-106.26823589 242.80277268 -114.97560746 244.80160352 -123.98071289 246.95629883 C-139.45066155 250.69319552 -153.56587243 255.7123548 -166 266 C-167.25876953 266.99773437 -167.25876953 266.99773437 -168.54296875 268.015625 C-182.77353462 279.92958712 -193.94953935 298.94932519 -196.32119751 317.51428223 C-196.99329431 325.37984035 -197.16153635 333.22026249 -197.19923019 341.11021423 C-197.21121919 343.39749156 -197.23070811 345.68459637 -197.25234985 347.97180176 C-197.3133742 354.46454184 -197.36821866 360.95724731 -197.40136719 367.45019531 C-197.4222956 371.44531497 -197.45755132 375.44009002 -197.50212479 379.43501282 C-197.51626339 380.9500169 -197.5250024 382.46508159 -197.52817917 383.98014832 C-197.53308243 386.09065134 -197.55621263 388.20023131 -197.58349609 390.31054688 C-197.59158295 391.50901245 -197.5996698 392.70747803 -197.60800171 393.94226074 C-198.02908193 397.2268504 -198.77137053 398.60816503 -201 401 C-203.9375 400.625 -203.9375 400.625 -207 400 C-208.47861833 397.04276334 -208.16462805 394.03419477 -208.17700195 390.79077148 C-208.18357315 390.04725433 -208.19014435 389.30373718 -208.19691467 388.53768921 C-208.21668985 386.06548965 -208.22833049 383.59335149 -208.23828125 381.12109375 C-208.24235678 380.27257402 -208.2464323 379.4240543 -208.25063133 378.54982185 C-208.27152746 374.04338957 -208.28580387 369.53698788 -208.29516602 365.03051758 C-208.30613196 360.41797946 -208.34040532 355.80593704 -208.38033772 351.19357204 C-208.40676954 347.61484516 -208.41488194 344.03623048 -208.41844749 340.45741463 C-208.42325927 338.76049583 -208.43471438 337.06358014 -208.45348549 335.36675835 C-208.72003198 309.63568626 -200.69908142 287.78252177 -184 268 C-183.54367188 267.39800781 -183.08734375 266.79601562 -182.6171875 266.17578125 C-174.79647897 256.13061969 -163.22463866 249.54802107 -152 244 C-152.53058553 239.39786864 -153.18462517 234.84660162 -153.97265625 230.28125 C-158.71915922 201.5507191 -159.60072661 171.49100975 -153 143 C-152.68424532 141.52097206 -152.36910808 140.04181212 -152.0546875 138.5625 C-148.6933781 123.45351211 -143.13473324 108.47000612 -134.37890625 95.62109375 C-132.61280389 92.26399832 -132.14611626 88.95557406 -131.625 85.25 C-129.74299254 73.49479002 -126.65591539 62.38989581 -121.6875 51.5625 C-119.09672144 45.83098221 -118.22362375 41.23976469 -119 35 C-118.40832031 34.70867187 -117.81664062 34.41734375 -117.20703125 34.1171875 C-111.86041445 31.34357552 -108.64920134 28.75501993 -105 24 C-104.34 24 -103.68 24 -103 24 C-102.6141272 23.09785767 -102.6141272 23.09785767 -102.22045898 22.17749023 C-100.11513471 18.42126155 -96.54440175 16.47722147 -93.0625 14.0625 C-91.99805664 13.29389648 -91.99805664 13.29389648 -90.91210938 12.50976562 C-66.1602712 -4.86730542 -28.82383478 -8.21514701 0 0 Z "
        fill="#0e39b6" transform="translate(316,217)" />
    <path
        d="M0 0 C0 65.01 0 130.02 0 197 C-77.22 197 -154.44 197 -234 197 C-232.33250643 192.83126607 -230.46137914 189.06523853 -228.25 185.1875 C-227.86368408 184.50518311 -227.47736816 183.82286621 -227.0793457 183.11987305 C-222.91046806 175.78706468 -218.64446068 168.51041753 -214.38378906 161.23071289 C-209.89694927 153.55913697 -205.46728174 145.85671898 -201.08276367 138.1262207 C-196.34711519 129.79497157 -191.49599388 121.56458758 -186.125 113.625 C-185.24713689 112.32178897 -184.36953552 111.0184016 -183.4921875 109.71484375 C-182.85361816 108.76714111 -182.85361816 108.76714111 -182.20214844 107.80029297 C-181.14178815 106.21233668 -180.10423258 104.60920322 -179.0703125 103.00390625 C-170.54606082 89.81509625 -160.69436418 77.48578772 -150 66 C-149.31035156 65.20851563 -148.62070312 64.41703125 -147.91015625 63.6015625 C-116.84177069 27.98247308 -74.16514205 8.7413262 -28 2 C-27.31325195 1.89703613 -26.62650391 1.79407227 -25.91894531 1.68798828 C-17.14917654 0.396396 -8.96899137 0 0 0 Z "
        fill="#0e39b6" transform="translate(568,635)" />
    <path
        d="M0 0 C77.22 0 154.44 0 234 0 C232.53270206 3.66824484 231.18351465 6.54999333 229.1875 9.875 C225.60235872 15.93239495 222.13863656 22.05286942 218.6875 28.1875 C213.64232873 37.13585149 208.52734583 46.03503373 203.27001953 54.86035156 C201.93006802 57.11781697 200.60352495 59.38285849 199.27734375 61.6484375 C184.04682692 87.52446993 167.37215264 113.69623825 146 135 C144.61687494 136.57624063 143.24187321 138.15964562 141.875 139.75 C137.84716255 144.26117795 133.52098549 148.06156697 128.7734375 151.796875 C126.67538414 153.46349767 124.66868649 155.16131688 122.66015625 156.9296875 C118.99746603 160.08333934 115.12619515 162.76614947 111.0625 165.375 C110.32741211 165.84760254 109.59232422 166.32020508 108.83496094 166.80712891 C97.53021717 173.94811177 85.63332927 179.61440977 73 184 C72.34821777 184.23428711 71.69643555 184.46857422 71.02490234 184.70996094 C48.519631 192.73153853 23.87133568 197 0 197 C0 131.99 0 66.98 0 0 Z "
        fill="#0e39b6" transform="translate(0,0)" />
    <path
        d="M0 0 C1.72440522 0.30036827 3.44815498 0.60450063 5.17163086 0.91015625 C6.13161484 1.079104 7.09159882 1.24805176 8.08067322 1.42211914 C11.74591378 2.14765366 15.28960562 3.15342711 18.87109375 4.20849609 C45.80848458 12.13039568 74.72520356 12.71965073 102 6 C103.93721923 5.53918265 105.87472875 5.07958427 107.8125 4.62109375 C110.62964075 3.9533358 113.44395561 3.27973025 116.25219727 2.57543945 C117.49054321 2.2673938 117.49054321 2.2673938 118.75390625 1.953125 C119.47908447 1.76911133 120.2042627 1.58509766 120.95141602 1.39550781 C123 1 123 1 127 1 C127.06990607 9.52843502 127.12301531 18.05674775 127.15543652 26.58539963 C127.17100714 30.54678308 127.19208529 34.50796866 127.22631836 38.46923828 C127.25922247 42.30127115 127.27691747 46.13311524 127.28463173 49.96527863 C127.29012014 51.41792009 127.30083537 52.87055273 127.31719017 54.32311249 C127.51736706 72.86089528 123.10133003 87.46110099 110 101 C109.34 101 108.68 101 108 101 C108 101.66 108 102.32 108 103 C96.88783717 113.12726979 77.65324923 125.73348849 62.1875 125.125 C40.7870382 121.66668537 21.35800211 107.22654796 8.578125 90.28515625 C0.39908262 78.44174093 -0.45154306 65.10521659 -0.29296875 51.07421875 C-0.28735641 49.59064671 -0.28309409 48.10706902 -0.28010559 46.62348938 C-0.26878539 42.76506529 -0.23943308 38.90699335 -0.20599365 35.04870605 C-0.17501193 31.093066 -0.16154093 27.13736767 -0.14648438 23.18164062 C-0.11454744 15.45426853 -0.06351189 7.72718406 0 0 Z "
        fill="#FCFDFD" transform="translate(221,296)" />
    <path
        d="M0 0 C0 7.92 0 15.84 0 24 C-2.2920232 25.1460116 -3.98206943 25.29017996 -6.53125 25.54296875 C-60.59490437 31.32824185 -106.76492146 52.51511266 -141.59375 94.94140625 C-154.47158498 111.00774364 -165.4588324 128.34254982 -176 146 C-176.39864258 146.66757324 -176.79728516 147.33514648 -177.20800781 148.02294922 C-183.55185284 158.67776126 -189.72635824 169.4320733 -195.91113281 180.1796875 C-196.52698242 181.24960937 -197.14283203 182.31953125 -197.77734375 183.421875 C-198.32640381 184.37674805 -198.87546387 185.33162109 -199.44116211 186.31542969 C-201.54546961 189.93938666 -203.6751063 193.51265944 -206 197 C-208.79736328 197.34057617 -208.79736328 197.34057617 -212.3203125 197.29296875 C-213.57714844 197.28330078 -214.83398438 197.27363281 -216.12890625 197.26367188 C-217.44761719 197.23853516 -218.76632812 197.21339844 -220.125 197.1875 C-221.46482903 197.17245483 -222.80467404 197.15876613 -224.14453125 197.14648438 C-227.43008842 197.11102872 -230.71484582 197.06160849 -234 197 C-232.39046974 192.8598915 -230.4476115 189.04109643 -228.25 185.1875 C-227.86368408 184.50518311 -227.47736816 183.82286621 -227.0793457 183.11987305 C-222.91046806 175.78706468 -218.64446068 168.51041753 -214.38378906 161.23071289 C-209.89694927 153.55913697 -205.46728174 145.85671898 -201.08276367 138.1262207 C-196.34711519 129.79497157 -191.49599388 121.56458758 -186.125 113.625 C-185.24713689 112.32178897 -184.36953552 111.0184016 -183.4921875 109.71484375 C-182.85361816 108.76714111 -182.85361816 108.76714111 -182.20214844 107.80029297 C-181.14178815 106.21233668 -180.10423258 104.60920322 -179.0703125 103.00390625 C-170.54606082 89.81509625 -160.69436418 77.48578772 -150 66 C-149.31035156 65.20851563 -148.62070312 64.41703125 -147.91015625 63.6015625 C-116.84177069 27.98247308 -74.16514205 8.7413262 -28 2 C-27.31325195 1.89703613 -26.62650391 1.79407227 -25.91894531 1.68798828 C-17.14917654 0.396396 -8.96899137 0 0 0 Z "
        fill="#0e39b6" transform="translate(568,635)" />
    <path
        d="M0 0 C2.79736328 -0.34057617 2.79736328 -0.34057617 6.3203125 -0.29296875 C7.57714844 -0.28330078 8.83398438 -0.27363281 10.12890625 -0.26367188 C12.10697266 -0.2259668 12.10697266 -0.2259668 14.125 -0.1875 C15.46482903 -0.17245483 16.80467404 -0.15876613 18.14453125 -0.14648438 C21.43008842 -0.11102872 24.71484582 -0.06160849 28 0 C26.63066861 3.50412302 25.12509368 6.64731229 23.1875 9.875 C19.60235872 15.93239495 16.13863656 22.05286942 12.6875 28.1875 C7.64232873 37.13585149 2.52734583 46.03503373 -2.72998047 54.86035156 C-4.06993198 57.11781697 -5.39647505 59.38285849 -6.72265625 61.6484375 C-21.95317308 87.52446993 -38.62784736 113.69623825 -60 135 C-61.38312506 136.57624063 -62.75812679 138.15964562 -64.125 139.75 C-68.15283745 144.26117795 -72.47901451 148.06156697 -77.2265625 151.796875 C-79.32461586 153.46349767 -81.33131351 155.16131688 -83.33984375 156.9296875 C-87.00253397 160.08333934 -90.87380485 162.76614947 -94.9375 165.375 C-95.67258789 165.84760254 -96.40767578 166.32020508 -97.16503906 166.80712891 C-108.46978283 173.94811177 -120.36667073 179.61440977 -133 184 C-133.65178223 184.23428711 -134.30356445 184.46857422 -134.97509766 184.70996094 C-157.480369 192.73153853 -182.12866432 197 -206 197 C-206 188.75 -206 180.5 -206 172 C-203.586875 171.773125 -201.17375 171.54625 -198.6875 171.3125 C-145.13426318 165.56941711 -99.78021266 144.95799193 -65.39453125 102.83203125 C-53.44506131 87.96360682 -42.65052346 72.44821391 -33 56 C-32.4838916 55.12166504 -31.9677832 54.24333008 -31.43603516 53.33837891 C-28.5629362 48.4406417 -25.7035352 43.53506522 -22.8515625 38.625 C-18.88132898 31.79027325 -14.89268617 24.96642428 -10.89727783 18.14639282 C-9.76715449 16.21679003 -8.63820173 14.28650559 -7.50927734 12.35620117 C-6.81355095 11.16841346 -6.11775369 9.98066725 -5.421875 8.79296875 C-4.80924805 7.7464917 -4.19662109 6.70001465 -3.56542969 5.62182617 C-2.42784224 3.71656236 -1.23090153 1.84635229 0 0 Z "
        fill="#0e39b6" transform="translate(206,0)" />
    <path
        d="M0 0 C1.11240692 0.94977592 2.22428274 1.9001739 3.3359375 2.85083008 C3.9551709 3.38001541 4.5744043 3.90920074 5.21240234 4.454422 C28.73037756 24.78834056 38.00610911 56.7105923 40.6875 86.9140625 C42.38714561 110.87327136 40.31402089 134.44544594 36 158 C30.83654019 159.72115327 25.77594202 157.46595499 20.625 156.125 C18.82204468 155.65767456 18.82204468 155.65767456 16.98266602 155.1809082 C-10.15407372 147.84592628 -10.15407372 147.84592628 -17 141 C-17.44525045 138.72427546 -17.78241256 136.42689512 -18.0625 134.125 C-18.14483887 133.45315674 -18.22717773 132.78131348 -18.31201172 132.08911133 C-19.03195026 126.06942719 -19.60856921 120.05015854 -20 114 C-20.10054688 113.11441406 -20.20109375 112.22882813 -20.3046875 111.31640625 C-20.58385315 107.6481696 -20.71945014 105.08957189 -18.6484375 101.953125 C-17.44299798 100.62554844 -16.20554921 99.32649194 -14.94140625 98.0546875 C-6.27679162 88.88449174 -2.03265108 76.29217053 -1.70288086 63.91479492 C-1.68322769 63.22156128 -1.66357452 62.52832764 -1.64332581 61.81408691 C-1.57975863 59.53630496 -1.52226419 57.25841323 -1.46484375 54.98046875 C-1.42180765 53.39576715 -1.37839098 51.81107585 -1.33460999 50.22639465 C-1.22067748 46.06561622 -1.11190292 41.90471844 -1.00421143 37.74377441 C-0.89329961 33.49381211 -0.77749713 29.24398335 -0.66210938 24.99414062 C-0.43662657 16.66288318 -0.21659408 8.33149325 0 0 Z "
        fill="#F9FBFC" transform="translate(359,298)" />
    <path
        d="M0 0 C0.66 0 1.32 0 2 0 C2.00586624 0.82526184 2.01173248 1.65052368 2.01777649 2.50079346 C2.07598404 10.32622849 2.14821819 18.15138659 2.23571491 25.97655106 C2.28020293 29.99834389 2.31950467 34.02004043 2.34643555 38.04199219 C2.37268619 41.93256354 2.41323687 45.82275995 2.46318626 49.71309662 C2.47970945 51.18798869 2.49131335 52.6629454 2.49761391 54.13791656 C2.5771155 71.05828727 6.03116823 87.07646942 17.75390625 99.921875 C20.27333399 102.75111636 21.89361346 104.75509084 22.22265625 108.60546875 C21.97862981 111.7778125 21.51318687 114.85987056 21 118 C20.75354477 120.02983972 20.52968867 122.06148719 20.30639648 124.09399414 C20.06507814 126.16537034 19.77586358 128.22535537 19.4765625 130.2890625 C18.93585072 133.83494432 18.93585072 133.83494432 19.0234375 136.7734375 C18.91840964 139.57099786 18.71332991 140.75734865 17 143 C11.58979782 146.09966076 5.90738688 148.06113344 0 150 C-1.36197991 150.46744574 -2.72395912 150.93489355 -4.0859375 151.40234375 C-13.56586721 154.56428012 -23.25059174 156.84016822 -33 159 C-39.61479714 147.77488971 -38.73517668 130.63145659 -39 118 C-39.02723145 116.86804199 -39.05446289 115.73608398 -39.08251953 114.56982422 C-39.85568412 78.04630708 -36.10908464 37.23942741 -10 9 C-7.41919262 6.55119158 -4.7412129 4.26503977 -2 2 C-1.34 1.34 -0.68 0.68 0 0 Z "
        fill="#F8FBFB" transform="translate(209,298)" />
    <path
        d="M0 0 C1.24785782 -0.01149078 2.49571564 -0.02298157 3.78138733 -0.03482056 C5.17715374 -0.04244634 6.57292099 -0.04991792 7.96868896 -0.05725098 C9.42868811 -0.06842056 10.88868467 -0.0799337 12.34867859 -0.09176636 C17.15654914 -0.12839337 21.96444635 -0.15355249 26.7723999 -0.1763916 C27.58964507 -0.18033747 28.40689024 -0.18428333 29.24890041 -0.18834877 C36.95304747 -0.2247717 44.65720354 -0.25622549 52.36140823 -0.27745819 C62.22499837 -0.30504074 72.08786988 -0.35581058 81.95116067 -0.43793249 C88.88113087 -0.49368253 95.81090586 -0.52268825 102.74109244 -0.5319314 C106.88258946 -0.53819614 111.02324481 -0.55637919 115.16449738 -0.60331726 C119.06193664 -0.64694316 122.95807296 -0.65748598 126.8557148 -0.64268875 C128.28562195 -0.6430178 129.71558448 -0.65532636 131.14526939 -0.68053818 C141.94506929 -0.86092219 141.94506929 -0.86092219 145.19626236 1.6877737 C146.56573486 3.55381775 146.56573486 3.55381775 148.2567749 7.1673584 C148.68119873 8.0343335 149.10562256 8.90130859 149.54290771 9.79455566 C149.99681885 11.00196411 149.99681885 11.00196411 150.4598999 12.23376465 C150.8002124 13.13159668 151.1405249 14.02942871 151.4911499 14.95446777 C151.82630615 15.87034668 152.1614624 16.78622559 152.5067749 17.7298584 C152.8573999 18.64960449 153.2080249 19.56935059 153.5692749 20.51696777 C155.26427065 25.0510814 156.7089764 29.32578633 157.2567749 34.1673584 C153.03973697 32.21502602 149.45398636 29.52876664 145.6942749 26.8236084 C141.43488004 23.92940419 139.01756069 22.74386946 133.7645874 23.5579834 C129.42371181 24.6127756 125.29930719 26.2784462 121.1161499 27.8314209 C114.65292262 30.14635893 107.95187308 31.6808506 101.2567749 33.1673584 C100.51798096 33.33666367 99.77918701 33.50596893 99.01800537 33.68040466 C93.16824763 34.94729654 87.62444288 35.48566071 81.6473999 35.5032959 C80.32550911 35.51586426 80.32550911 35.51586426 78.97691345 35.52868652 C76.15334782 35.54807592 73.33039549 35.54829497 70.5067749 35.5423584 C69.54313019 35.54181458 68.57948547 35.54127075 67.5866394 35.54071045 C45.93319372 35.48435004 25.58512238 32.96640599 5.63568115 23.9876709 C2.49807594 22.90573807 0.56936834 22.67841472 -2.7432251 23.1673584 C-5.56037943 24.73629439 -8.03452641 26.66515768 -10.5557251 28.6673584 C-17.68410348 34.1673584 -17.68410348 34.1673584 -18.7432251 34.1673584 C-18.20713784 28.44271229 -17.08265939 23.57445257 -14.9932251 18.2298584 C-14.72808105 17.53690674 -14.46293701 16.84395508 -14.1897583 16.13000488 C-7.89558932 0.05910643 -7.89558932 0.05910643 0 0 Z "
        fill="#FCFDFD" transform="translate(215.74322509765625,260.8326416015625)" />
    <path
        d="M0 0 C3.67572748 1.31877245 6.91652783 3.07262272 10.26464844 5.07250977 C23.50902193 12.9276024 37.39765151 19.6040567 53.0625 16.3671875 C65.24314744 13.05333489 76.42871287 6.76562376 87 0 C87.66 0 88.32 0 89 0 C89.50828443 3.35296491 90.00511457 6.70753343 90.5 10.0625 C90.64308594 11.00544922 90.78617187 11.94839844 90.93359375 12.91992188 C93.09978207 27.72220871 93.09978207 27.72220871 89 34 C79.97180766 45.04199966 66.08225774 52.1525751 52 54 C34.51392865 54.96937709 19.69457113 51.69602675 6 40 C4.64684348 38.68678906 3.31138986 37.35492147 2 36 C1.44054687 35.48179687 0.88109375 34.96359375 0.3046875 34.4296875 C-2.2341238 31.66890363 -2.96390552 29.75505753 -3.14453125 25.9765625 C-2.92448799 22.2814965 -2.50377104 18.66715681 -2 15 C-1.82154154 13.58611039 -1.64447908 12.17204394 -1.46875 10.7578125 C-1.01317364 7.16684815 -0.51683359 3.58271051 0 0 Z "
        fill="#F6FAFB" transform="translate(240,413)" />
    <path
        d="M0 0 C0 3.3 0 6.6 0 10 C-2.2920232 11.1460116 -3.98206943 11.29017996 -6.53125 11.54296875 C-60.59490437 17.32824185 -106.76492146 38.51511266 -141.59375 80.94140625 C-154.47158498 97.00774364 -165.4588324 114.34254982 -176 132 C-176.39864258 132.66757324 -176.79728516 133.33514648 -177.20800781 134.02294922 C-183.55185284 144.67776126 -189.72635824 155.4320733 -195.91113281 166.1796875 C-196.83490723 167.78457031 -196.83490723 167.78457031 -197.77734375 169.421875 C-198.32640381 170.37674805 -198.87546387 171.33162109 -199.44116211 172.31542969 C-201.54546961 175.93938666 -203.6751063 179.51265944 -206 183 C-210.33573347 183.41796916 -214.6501246 183.12793751 -219 183 C-214.76541425 174.18797142 -210.0296238 165.74984264 -205 157.375 C-204.30690459 156.21377261 -203.61419516 155.05231476 -202.921875 153.890625 C-200.37847109 149.62896731 -197.82815857 145.37161217 -195.26293945 141.12304688 C-192.80267553 137.04493519 -190.39071652 132.97458024 -188.1875 128.75 C-184.81078467 122.49158521 -180.95059627 116.58487778 -177.06103516 110.63867188 C-175.5884513 108.36440062 -174.17448365 106.05462367 -172.75 103.75 C-164.47555581 90.76371954 -155.19008545 78.53211815 -145 67 C-144.23042969 66.11957031 -143.46085937 65.23914063 -142.66796875 64.33203125 C-137.37234594 58.35011057 -131.97681642 52.31021497 -126 47 C-125.34 47 -124.68 47 -124 47 C-124 46.34 -124 45.68 -124 45 C-121.21994074 42.41116174 -118.05552624 40.25122218 -115 38 C-114.22052002 37.41822998 -114.22052002 37.41822998 -113.42529297 36.82470703 C-81.49289152 13.04807745 -40.03044713 -1.09505782 0 0 Z "
        fill="#F4F9FA" transform="translate(568,649)" />
    <path
        d="M0 0 C3.0390625 -0.29296875 3.0390625 -0.29296875 6.625 -0.1875 C7.81351563 -0.16042969 9.00203125 -0.13335938 10.2265625 -0.10546875 C11.14179688 -0.07066406 12.05703125 -0.03585937 13 0 C3.64567584 17.19042916 -5.83568785 34.27408975 -16 51 C-16.35671783 51.58796356 -16.71343567 52.17592712 -17.08096313 52.78170776 C-20.85898892 58.99944265 -24.69384448 65.15826634 -28.79174805 71.17089844 C-29.87746974 72.81450865 -30.85305626 74.52961812 -31.8125 76.25 C-40.67809675 92.06332972 -52.64244648 106.82292286 -65 120 C-66.21483818 121.39017565 -67.42373834 122.78557612 -68.625 124.1875 C-72.20715947 128.2971984 -75.87113361 132.43114078 -80 136 C-80.66 136 -81.32 136 -82 136 C-82 136.66 -82 137.32 -82 138 C-83.35424805 139.29345703 -83.35424805 139.29345703 -85.26171875 140.7578125 C-85.96176025 141.29704346 -86.66180176 141.83627441 -87.38305664 142.3918457 C-88.14352295 142.96378662 -88.90398926 143.53572754 -89.6875 144.125 C-90.46407959 144.71176514 -91.24065918 145.29853027 -92.04077148 145.90307617 C-113.75163186 162.11977787 -137.65539896 172.09041444 -164 178 C-165.16789062 178.27585938 -166.33578125 178.55171875 -167.5390625 178.8359375 C-180.31784034 181.74938346 -192.87548007 183.328113 -206 183 C-206 179.37 -206 175.74 -206 172 C-205.01386719 171.91363281 -204.02773437 171.82726562 -203.01171875 171.73828125 C-148.71459997 166.5674368 -101.96543884 146.97765847 -66.71337891 104.44775391 C-54.21667817 89.13802316 -42.99707405 73.03886977 -33 56 C-32.4838916 55.12166504 -31.9677832 54.24333008 -31.43603516 53.33837891 C-28.5629362 48.4406417 -25.7035352 43.53506522 -22.8515625 38.625 C-18.88132898 31.79027325 -14.89268617 24.96642428 -10.89727783 18.14639282 C-9.76715449 16.21679003 -8.63820173 14.28650559 -7.50927734 12.35620117 C-6.81355095 11.16841346 -6.11775369 9.98066725 -5.421875 8.79296875 C-4.80924805 7.7464917 -4.19662109 6.70001465 -3.56542969 5.62182617 C-2.42784224 3.71656236 -1.23090153 1.84635229 0 0 Z "
        fill="#F5F9FA" transform="translate(206,0)" />
    <path
        d="M0 0 C1.6875 1.8828125 1.6875 1.8828125 1.6875 3.8828125 C-41.5425 3.8828125 -84.7725 3.8828125 -129.3125 3.8828125 C-126.71001222 -3.92465084 -116.0723615 -9.24545257 -109.0546875 -12.84375 C-74.66645409 -28.81321452 -28.61629605 -26.19937915 0 0 Z "
        fill="#F6F9FA" transform="translate(348.3125,246.1171875)" />
    <path
        d="M0 0 C0.88365234 -0.00257813 1.76730469 -0.00515625 2.67773438 -0.0078125 C3.59748047 -0.00007812 4.51722656 0.00765625 5.46484375 0.015625 C6.38845703 0.00789062 7.31207031 0.00015625 8.26367188 -0.0078125 C9.14603516 -0.00523437 10.02839844 -0.00265625 10.9375 0 C12.14998413 0.00338379 12.14998413 0.00338379 13.38696289 0.00683594 C15.40234375 0.265625 15.40234375 0.265625 17.40234375 2.265625 C17.83984375 5.203125 17.83984375 5.203125 17.40234375 8.265625 C13.35026065 11.60585566 9.38291741 11.72382878 4.33984375 11.640625 C3.63279297 11.65222656 2.92574219 11.66382813 2.19726562 11.67578125 C-0.9710258 11.65793172 -3.25782394 11.44898389 -6.06640625 9.93359375 C-7.59765625 8.265625 -7.59765625 8.265625 -8.03515625 5.203125 C-7.89078125 4.23375 -7.74640625 3.264375 -7.59765625 2.265625 C-4.43300485 0.1558574 -3.62371852 0.01009895 0 0 Z "
        fill="#0e39b6" transform="translate(279.59765625,559.734375)" />
    <path
        d="M0 0 C0.93199219 -0.00257813 1.86398437 -0.00515625 2.82421875 -0.0078125 C3.80003906 -0.00007812 4.77585937 0.00765625 5.78125 0.015625 C6.75707031 0.00789062 7.73289062 0.00015625 8.73828125 -0.0078125 C9.67027344 -0.00523437 10.60226562 -0.00265625 11.5625 0 C12.41908203 0.00225586 13.27566406 0.00451172 14.15820312 0.00683594 C16.28125 0.265625 16.28125 0.265625 18.28125 2.265625 C18.53125 5.265625 18.53125 5.265625 18.28125 8.265625 C15.83774051 10.70913449 15.16808648 10.52189616 11.81640625 10.53125 C10.93404297 10.53382813 10.05167969 10.53640625 9.14257812 10.5390625 C8.21896484 10.53132812 7.29535156 10.52359375 6.34375 10.515625 C5.42400391 10.52335938 4.50425781 10.53109375 3.55664062 10.5390625 C2.67298828 10.53648437 1.78933594 10.53390625 0.87890625 10.53125 C0.06945557 10.52899414 -0.73999512 10.52673828 -1.57397461 10.52441406 C-3.71875 10.265625 -3.71875 10.265625 -6.71875 8.265625 C-7.03125 5.265625 -7.03125 5.265625 -6.71875 2.265625 C-4.22817749 -0.22494751 -3.43402341 0.0090437 0 0 Z "
        fill="#0e39b6" transform="translate(278.71875,531.734375)" />
    <path
        d="M0 0 C0.93199219 -0.00257813 1.86398437 -0.00515625 2.82421875 -0.0078125 C3.80003906 -0.00007813 4.77585937 0.00765625 5.78125 0.015625 C6.75707031 0.00789063 7.73289062 0.00015625 8.73828125 -0.0078125 C9.67027344 -0.00523437 10.60226562 -0.00265625 11.5625 0 C12.41908203 0.00225586 13.27566406 0.00451172 14.15820312 0.00683594 C16.28125 0.265625 16.28125 0.265625 18.28125 2.265625 C18.53125 5.265625 18.53125 5.265625 18.28125 8.265625 C15.83774051 10.70913449 15.16808648 10.52189616 11.81640625 10.53125 C10.93404297 10.53382813 10.05167969 10.53640625 9.14257812 10.5390625 C8.21896484 10.53132812 7.29535156 10.52359375 6.34375 10.515625 C5.42400391 10.52335938 4.50425781 10.53109375 3.55664062 10.5390625 C2.67298828 10.53648437 1.78933594 10.53390625 0.87890625 10.53125 C0.06945557 10.52899414 -0.73999512 10.52673828 -1.57397461 10.52441406 C-3.71875 10.265625 -3.71875 10.265625 -6.71875 8.265625 C-7.03125 5.265625 -7.03125 5.265625 -6.71875 2.265625 C-4.22817749 -0.22494751 -3.43402341 0.0090437 0 0 Z "
        fill="#0e39b6" transform="translate(278.71875,503.734375)" />
    <path
        d="M0 0 C0.33 0 0.66 0 1 0 C1.15388413 9.18807508 1.30206491 18.37621927 1.4429636 27.56450272 C1.50856756 31.83097622 1.5761363 36.09739975 1.64819336 40.36376953 C1.7176588 44.48097287 1.78196562 48.59822741 1.84269524 52.71556854 C1.86677244 54.28646521 1.8927089 55.85733451 1.92053413 57.42816925 C1.95918682 59.62817611 1.99123039 61.8281874 2.02172852 64.02832031 C2.04171402 65.28074524 2.06169952 66.53317017 2.08229065 67.82354736 C2.01433735 70.44657263 1.79078323 72.51926517 1 75 C-0.32 74.34 -1.64 73.68 -3 73 C-2.34 72.01 -1.68 71.02 -1 70 C-0.66957312 66.86483072 -0.66957312 66.86483072 -0.68115234 63.23364258 C-0.67110672 62.55045456 -0.6610611 61.86726654 -0.65071106 61.16337585 C-0.61984114 58.90710281 -0.60283368 56.65094863 -0.5859375 54.39453125 C-0.56722888 52.82939122 -0.54765569 51.26426131 -0.5272522 49.69914246 C-0.47589252 45.58104412 -0.43628744 41.46291306 -0.39910889 37.34466553 C-0.35909321 33.14180381 -0.30798978 28.93907863 -0.2578125 24.73632812 C-0.16100783 16.49097864 -0.07661769 8.24556166 0 0 Z "
        fill="#EBF5F8" transform="translate(118,544)" />
    <path
        d="M0 0 C2.97 0.495 2.97 0.495 6 1 C5.35125916 1.38195023 4.70251831 1.76390045 4.03411865 2.15742493 C1.77966336 3.83645835 1.77966336 3.83645835 1.48101807 6.48674011 C1.47213562 7.47491226 1.46325317 8.46308441 1.45410156 9.48120117 C1.43438293 10.60213669 1.41466431 11.7230722 1.39434814 12.87797546 C1.39250519 14.69214714 1.39250519 14.69214714 1.390625 16.54296875 C1.37408875 17.78170242 1.35755249 19.0204361 1.34051514 20.29670715 C1.30013212 23.58638111 1.27683936 26.87559728 1.26177979 30.16546631 C1.24221462 33.5238829 1.20024417 36.88201115 1.16015625 40.24023438 C1.0860947 46.82675276 1.03455578 53.41316233 1 60 C0.67 60 0.34 60 0 60 C0 40.2 0 20.4 0 0 Z "
        fill="#EBF9FC" transform="translate(221,296)" />
    <path
        d="M0 0 C-0.06640625 1.8125 -0.06640625 1.8125 -1 4 C-3.33333996 5.17994435 -5.49566551 6.11910034 -7.9375 7 C-12.86256273 8.63023912 -12.86256273 8.63023912 -16.44140625 12.1875 C-16.71791016 13.0846875 -16.71791016 13.0846875 -17 14 C-18.65 14 -20.3 14 -22 14 C-18.17753144 9.83742785 -14.18068431 7.02530676 -9.3125 4.1875 C-8.63638672 3.78080078 -7.96027344 3.37410156 -7.26367188 2.95507812 C-2.27232143 0 -2.27232143 0 0 0 Z "
        fill="#455E72" transform="translate(484,682)" />
    <path
        d="M0 0 C0.33 0 0.66 0 1 0 C1.02505615 0.55349121 1.0501123 1.10698242 1.07592773 1.67724609 C1.7058811 15.8631308 1.7058811 15.8631308 3 30 C1 29 1 29 0.078125 26.62109375 C-2.37448156 17.19244116 -1.68157296 9.42406714 0 0 Z "
        fill="#51647F" transform="translate(170,416)" />
    <path
        d="M0 0 C0.33 0.99 0.66 1.98 1 3 C-0.36328125 5.04296875 -0.36328125 5.04296875 -2.3125 7.1875 C-2.94800781 7.90292969 -3.58351562 8.61835938 -4.23828125 9.35546875 C-6 11 -6 11 -8 11 C-8.2475 11.5775 -8.495 12.155 -8.75 12.75 C-10.16683317 15.3002997 -11.87627537 17.01785701 -14 19 C-14.66 18.67 -15.32 18.34 -16 18 C-14.71937515 16.2925002 -13.38232443 14.62626404 -12 13 C-11.34 13 -10.68 13 -10 13 C-9.75507813 12.43796875 -9.51015625 11.8759375 -9.2578125 11.296875 C-7.77073461 8.58134146 -5.95937218 6.53608562 -3.875 4.25 C-3.15054688 3.45078125 -2.42609375 2.6515625 -1.6796875 1.828125 C-0.84824219 0.92320313 -0.84824219 0.92320313 0 0 Z "
        fill="#D3E0E8" transform="translate(158,121)" />
    <path
        d="M0 0 C0.99 1.32 1.98 2.64 3 4 C1.71034824 5.37562854 0.37310707 6.70766393 -1 8 C-1.66 8 -2.32 8 -3 8 C-3.12375 8.763125 -3.2475 9.52625 -3.375 10.3125 C-4 13 -4 13 -6 16 C-6.66 16 -7.32 16 -8 16 C-6.42986223 10.03347646 -3.24970218 5.17090975 0 0 Z "
        fill="#D9E7EC" transform="translate(213,36)" />
    <path
        d="M0 0 C3.51993629 -0.10056961 6.57068272 0.22060971 10 1 C11.12921875 1.21849609 11.12921875 1.21849609 12.28125 1.44140625 C13.0959375 1.60511719 13.910625 1.76882813 14.75 1.9375 C15.52859375 2.09089844 16.3071875 2.24429687 17.109375 2.40234375 C17.73328125 2.59957031 18.3571875 2.79679687 19 3 C19.33 3.66 19.66 4.32 20 5 C12.75841435 4.64999003 6.65594553 3.94397591 0 1 C0 0.67 0 0.34 0 0 Z "
        fill="#4C6175" transform="translate(260,472)" />
    <path
        d="M0 0 C0.77734375 1.703125 0.77734375 1.703125 1 4 C-0.87109375 6.359375 -0.87109375 6.359375 -3.4375 8.75 C-4.70400391 9.94882812 -4.70400391 9.94882812 -5.99609375 11.171875 C-6.65738281 11.77515625 -7.31867188 12.3784375 -8 13 C-8.66 12.67 -9.32 12.34 -10 12 C-8.52149287 10.18696196 -7.04217625 8.37458402 -5.5625 6.5625 C-4.32693359 5.04849609 -4.32693359 5.04849609 -3.06640625 3.50390625 C-1 1 -1 1 0 0 Z "
        fill="#DFEEF4" transform="translate(143,488)" />
    <path
        d="M0 0 C0 3.93169105 -1.39419615 5.16427228 -4 8 C-4.66 8 -5.32 8 -6 8 C-6.66 9.32 -7.32 10.64 -8 12 C-8.99 11.34 -9.98 10.68 -11 10 C-5.555 5.05 -5.555 5.05 0 0 Z "
        fill="#435C70" transform="translate(436,683)" />
    <path
        d="M0 0 C2 3.75 2 3.75 2 6 C0.04072937 7.7143618 -1.95880212 9.38405168 -4 11 C-4.66 10.67 -5.32 10.34 -6 10 C-5.18957164 8.51969728 -4.37659652 7.04078858 -3.5625 5.5625 C-2.88380859 4.32693359 -2.88380859 4.32693359 -2.19140625 3.06640625 C-1 1 -1 1 0 0 Z "
        fill="#48627E" transform="translate(180,66)" />
    <path
        d="M0 0 C0.66 0.33 1.32 0.66 2 1 C0.43930994 4.83078469 -2.06814114 7.14143762 -5 10 C-5.99 11.485 -5.99 11.485 -7 13 C-7.66 12.67 -8.32 12.34 -9 12 C-6.03 8.04 -3.06 4.08 0 0 Z "
        fill="#4B6381" transform="translate(402,720)" />
    <path
        d="M0 0 C0.66 0.33 1.32 0.66 2 1 C0.625 2.5 0.625 2.5 -1 4 C-1.66 4 -2.32 4 -3 4 C-3.33 4.66 -3.66 5.32 -4 6 C-6.9375 6.75 -6.9375 6.75 -10 7 C-10.66 6.34 -11.32 5.68 -12 5 C-10.04578965 4.13644222 -8.08648653 3.28440066 -6.125 2.4375 C-5.03445313 1.96183594 -3.94390625 1.48617187 -2.8203125 0.99609375 C-1.88960938 0.66738281 -0.95890625 0.33867188 0 0 Z "
        fill="#445873" transform="translate(489,650)" />
    <path
        d="M0 0 C0 0.99 0 1.98 0 3 C-6.625 4.25 -6.625 4.25 -10 2 C-6.49223216 0.39644899 -3.85645121 -0.22036864 0 0 Z "
        fill="#425A76" transform="translate(355,283)" />
    <path
        d="M0 0 C0.66 0 1.32 0 2 0 C1.40716379 3.39192363 0.23256811 5.2107757 -2.0625 7.75 C-2.61035156 8.36359375 -3.15820312 8.9771875 -3.72265625 9.609375 C-4.14417969 10.06828125 -4.56570312 10.5271875 -5 11 C-5.33 9.68 -5.66 8.36 -6 7 C-5.01 7 -4.02 7 -3 7 C-2.67 5.68 -2.34 4.36 -2 3 C-1.34 3 -0.68 3 0 3 C0 2.01 0 1.02 0 0 Z "
        fill="#3E566B" transform="translate(146,92)" />
    <path
        d="M0 0 C-0.125 1.875 -0.125 1.875 -1 4 C-4.0625 5.25 -4.0625 5.25 -7 6 C-6.75 4.125 -6.75 4.125 -6 2 C-3.85331506 0.61504198 -2.56128588 0 0 0 Z "
        fill="#3A5474" transform="translate(484,682)" />
    <path
        d="M0 0 C0.33 0 0.66 0 1 0 C1.64165788 5.26159459 0.20577001 7.68592849 -2.90625 11.6796875 C-3.2671875 12.11539062 -3.628125 12.55109375 -4 13 C-4.33 12.34 -4.66 11.68 -5 11 C-4.00390625 8.3984375 -4.00390625 8.3984375 -2.5625 5.375 C-2.08941406 4.37210937 -1.61632812 3.36921875 -1.12890625 2.3359375 C-0.75636719 1.56507813 -0.38382813 0.79421875 0 0 Z "
        fill="#DDEEF5" transform="translate(184,330)" />
    <path
        d="M0 0 C-2 2 -2 2 -4.8203125 2.1953125 C-5.91085937 2.17210937 -7.00140625 2.14890625 -8.125 2.125 C-9.22070312 2.10695313 -10.31640625 2.08890625 -11.4453125 2.0703125 C-12.28835938 2.04710937 -13.13140625 2.02390625 -14 2 C-14 1.67 -14 1.34 -14 1 C-12.41913952 0.63495397 -10.83516093 0.28339494 -9.25 -0.0625 C-8.36828125 -0.25972656 -7.4865625 -0.45695312 -6.578125 -0.66015625 C-4.01320972 -0.99825872 -2.42908361 -0.81158635 0 0 Z "
        fill="#39546A" transform="translate(296,420)" />
    <path
        d="M0 0 C3.63 0 7.26 0 11 0 C10.67 0.66 10.34 1.32 10 2 C7.93359375 2.4140625 7.93359375 2.4140625 5.4375 2.625 C4.61121094 2.69976562 3.78492188 2.77453125 2.93359375 2.8515625 C1.97646484 2.92503906 1.97646484 2.92503906 1 3 C0.67 2.01 0.34 1.02 0 0 Z "
        fill="#DBE9F0" transform="translate(279,477)" />
    <path
        d="M0 0 C0.99 0.33 1.98 0.66 3 1 C-1.455 3.97 -1.455 3.97 -6 7 C-6 5.35 -6 3.7 -6 2 C-4.02 2 -2.04 2 0 2 C0 1.34 0 0.68 0 0 Z "
        fill="#D2E1ED" transform="translate(203,288)" />
    <path
        d="M0 0 C1 2 1 2 0.25 4.3125 C-1.01118343 7.02404437 -2.30790527 9.53236186 -4 12 C-4.66 12 -5.32 12 -6 12 C-4.43358249 7.69235185 -2.31663844 3.93828536 0 0 Z "
        fill="#526380" transform="translate(198,36)" />
    <path
        d="M0 0 C0.66 0.33 1.32 0.66 2 1 C2 4 2 4 0.0625 6.0625 C-0.618125 6.701875 -1.29875 7.34125 -2 8 C-2.33 8.66 -2.66 9.32 -3 10 C-3.66 10 -4.32 10 -5 10 C-3.66511872 6.40608886 -2.03977277 3.24509304 0 0 Z "
        fill="#DDE9EC" transform="translate(206,0)" />
    <path
        d="M0 0 C1.09658936 3.28976808 0.79953138 4.71303767 0 8 C-1.32 7.67 -2.64 7.34 -4 7 C-2.92598892 4.08482708 -2.22189824 2.22189824 0 0 Z "
        fill="#3E587B" transform="translate(400,767)" />
    <path
        d="M0 0 C0 3 0 3 -1.3125 4.60546875 C-1.869375 5.12753906 -2.42625 5.64960938 -3 6.1875 C-3.556875 6.71730469 -4.11375 7.24710938 -4.6875 7.79296875 C-5.120625 8.19128906 -5.55375 8.58960938 -6 9 C-6.99 8.67 -7.98 8.34 -9 8 C-6.03 5.36 -3.06 2.72 0 0 Z "
        fill="#DCE8F1" transform="translate(141,140)" />
    <path
        d="M0 0 C0.33 0.99 0.66 1.98 1 3 C-0.21484375 5.04296875 -0.21484375 5.04296875 -1.9375 7.1875 C-2.50339844 7.90292969 -3.06929687 8.61835937 -3.65234375 9.35546875 C-4.09707031 9.89816406 -4.54179687 10.44085938 -5 11 C-5.66 10.34 -6.32 9.68 -7 9 C-4.69 6.03 -2.38 3.06 0 0 Z "
        fill="#DAE1E8" transform="translate(145,97)" />
    <path
        d="M0 0 C0.66 0.66 1.32 1.32 2 2 C1.00102287 4.99693138 0.34869747 6.02709413 -2 8 C-2.66 8 -3.32 8 -4 8 C-2.87548273 5.0280615 -1.77706209 2.66559313 0 0 Z "
        fill="#DBE7ED" transform="translate(222,21)" />
    <path
        d="M0 0 C0.66 1.32 1.32 2.64 2 4 C1.34 4 0.68 4 0 4 C-0.66 5.32 -1.32 6.64 -2 8 C-2.66 7.67 -3.32 7.34 -4 7 C-2.68 4.69 -1.36 2.38 0 0 Z "
        fill="#E4F0F5" transform="translate(374,788)" />
    <path
        d="M0 0 C0.33 0.99 0.66 1.98 1 3 C-1.97 5.475 -1.97 5.475 -5 8 C-5.66 7.67 -6.32 7.34 -7 7 C-4.69 4.69 -2.38 2.38 0 0 Z "
        fill="#4E6B87" transform="translate(446,708)" />
    <path d="M0 0 C3.65316671 1.24976756 4.78065836 1.67098753 7 5 C6.67 5.99 6.34 6.98 6 8 C4.02 5.36 2.04 2.72 0 0 Z "
        fill="#3F576B" transform="translate(372,310)" />
    <path
        d="M0 0 C0.66 0 1.32 0 2 0 C0.90931332 3.77545388 0.0916909 6.47043472 -3 9 C-3 7.35 -3 5.7 -3 4 C-2.01 3.67 -1.02 3.34 0 3 C0 2.01 0 1.02 0 0 Z "
        fill="#384F61" transform="translate(205,265)" />
    <path
        d="M0 0 C0 0.99 0 1.98 0 3 C-0.99 3.66 -1.98 4.32 -3 5 C-3.66 5.99 -4.32 6.98 -5 8 C-5.1875 5.125 -5.1875 5.125 -5 2 C-2 0 -2 0 0 0 Z "
        fill="#3F5970" transform="translate(202,250)" />
    <path
        d="M0 0 C0.98120464 3.05263664 0.98120464 4.94736336 0 8 C-1.32 8 -2.64 8 -4 8 C-2.87548273 5.0280615 -1.77706209 2.66559313 0 0 Z "
        fill="#CFE7F0" transform="translate(199,12)" />
    <path
        d="M0 0 C0.66 0.66 1.32 1.32 2 2 C0.35 4.64 -1.3 7.28 -3 10 C-3.66 9.67 -4.32 9.34 -5 9 C-3.35 6.03 -1.7 3.06 0 0 Z "
        fill="#E0E9ED" transform="translate(354,822)" />
    <path
        d="M0 0 C0.33 0 0.66 0 1 0 C1.3125 2.3125 1.3125 2.3125 1 5 C-1.5 6.8125 -1.5 6.8125 -4 8 C-2.87548273 5.0280615 -1.77706209 2.66559313 0 0 Z "
        fill="#516884" transform="translate(381,750)" />
    <path
        d="M0 0 C0 1.66666667 0 3.33333333 0 5 C-2.31 4.67 -4.62 4.34 -7 4 C-4.77810176 1.77810176 -2.91517292 1.07401108 0 0 Z "
        fill="#47637C" transform="translate(496,675)" />
    <path
        d="M0 0 C1.14926266 0.95421808 2.29430541 1.91352045 3.4375 2.875 C4.07558594 3.40867187 4.71367187 3.94234375 5.37109375 4.4921875 C7 6 7 6 8 8 C6.68 8 5.36 8 4 8 C4 7.34 4 6.68 4 6 C3.01 5.67 2.02 5.34 1 5 C0.67 3.35 0.34 1.7 0 0 Z "
        fill="#DEECF4" transform="translate(232,453)" />
    <path
        d="M0 0 C-3.96 1.98 -3.96 1.98 -8 4 C-8 3.01 -8 2.02 -8 1 C-4.59449725 -1.06762667 -4.18836538 -1.04709135 0 0 Z "
        fill="#DDEFF6" transform="translate(317,408)" />
    <path
        d="M0 0 C2.475 0.99 2.475 0.99 5 2 C1.3558226 4.4294516 -0.71241272 4.16179575 -5 4 C-4.360625 3.71125 -3.72125 3.4225 -3.0625 3.125 C-0.84793921 2.17176549 -0.84793921 2.17176549 0 0 Z "
        fill="#D2DFE6" transform="translate(305,292)" />
    <path
        d="M0 0 C2.12508244 3.18762365 2.5020163 5.26512223 3 9 C-0.875 7.25 -0.875 7.25 -2 5 C-1.34 5 -0.68 5 0 5 C0 3.35 0 1.7 0 0 Z "
        fill="#C9D9E6" transform="translate(370,286)" />
    <path
        d="M0 0 C0.93423645 3.01031744 1.04449911 3.86650268 0 7 C-2.0625 7.6875 -2.0625 7.6875 -4 8 C-2.87548273 5.0280615 -1.77706209 2.66559313 0 0 Z "
        fill="#475D77" transform="translate(347,808)" />
    <path
        d="M0 0 C0.6875 1.75 0.6875 1.75 1 4 C-0.3125 6.25 -0.3125 6.25 -2 8 C-2.66 8 -3.32 8 -4 8 C-2.87548273 5.0280615 -1.77706209 2.66559313 0 0 Z "
        fill="#45586E" transform="translate(357,791)" />
    <path
        d="M0 0 C0.33 1.32 0.66 2.64 1 4 C0.01 4.495 0.01 4.495 -1 5 C-1.65213292 7.02463255 -1.65213292 7.02463255 -2 9 C-2.66 9 -3.32 9 -4 9 C-2.80100302 5.9168649 -1.52299523 2.93720508 0 0 Z "
        fill="#4E5E79" transform="translate(371,766)" />
    <path
        d="M0 0 C2 2 2 2 2.125 4.625 C2.08375 5.40875 2.0425 6.1925 2 7 C0.68 7.33 -0.64 7.66 -2 8 C-1.34 5.36 -0.68 2.72 0 0 Z "
        fill="#455D78" transform="translate(114,513)" />
    <path d="M0 0 C1.5 1.25 1.5 1.25 3 3 C3 4.32 3 5.64 3 7 C2.01 7.33 1.02 7.66 0 8 C0 5.36 0 2.72 0 0 Z "
        fill="#E2EEF3" transform="translate(409,426)" />
    <path d="M0 0 C0.33 0 0.66 0 1 0 C1.33 2.97 1.66 5.94 2 9 C1.01 8.67 0.02 8.34 -1 8 C-1.125 2.25 -1.125 2.25 0 0 Z "
        fill="#425A6F" transform="translate(381,287)" />
    <path
        d="M0 0 C0.66 0.33 1.32 0.66 2 1 C1.34 2.32 0.68 3.64 0 5 C-1.98 5 -3.96 5 -6 5 C-5.195625 4.360625 -4.39125 3.72125 -3.5625 3.0625 C-1.7249496 1.59396498 -1.7249496 1.59396498 0 0 Z "
        fill="#485869" transform="translate(100,154)" />
</svg>