<svg width="13" height="6" viewBox="0 0 13 6" fill="none" xmlns="http://www.w3.org/2000/svg">
<path d="M6.51098 0.000700951C6.74415 0.000244617 6.97013 0.0816193 7.14967 0.2307L12.1395 4.2307C12.3433 4.40044 12.4714 4.64435 12.4958 4.90878C12.5201 5.1732 12.4386 5.43648 12.2692 5.6407C12.0998 5.84492 11.8564 5.97334 11.5925 5.99772C11.3286 6.0221 11.0659 5.94044 10.8621 5.7707L6.51098 2.2907L2.15986 5.6107C2.05778 5.69377 1.94033 5.7558 1.81424 5.79323C1.68816 5.83066 1.55594 5.84276 1.42518 5.82882C1.29442 5.81488 1.1677 5.77518 1.05229 5.71201C0.936893 5.64883 0.835089 5.56343 0.752734 5.4607C0.661341 5.35788 0.592123 5.23725 0.549418 5.10638C0.506713 4.97551 0.491441 4.83721 0.504558 4.70014C0.517673 4.56308 0.558895 4.43021 0.625642 4.30985C0.692389 4.18949 0.783223 4.08425 0.89245 4.0007L5.88226 0.170701C6.06697 0.0451851 6.28833 -0.0146699 6.51098 0.000700951Z" fill="#00377B"/>
</svg>
