<svg width="7" height="13" viewBox="0 0 7 13" fill="none" xmlns="http://www.w3.org/2000/svg">
<path d="M6.49882 7.06895C6.49477 7.30209 6.40904 7.52645 6.25651 7.70308L2.16082 12.6146C1.98717 12.8151 1.74083 12.9386 1.47598 12.9578C1.21114 12.977 0.94948 12.8904 0.748576 12.7171C0.547671 12.5438 0.423976 12.2979 0.404701 12.0336C0.385426 11.7693 0.47215 11.5082 0.645796 11.3077L4.20924 7.02469L0.973961 2.61022C0.892884 2.50655 0.833134 2.38792 0.798146 2.26113C0.763158 2.13435 0.753622 2.00192 0.770086 1.87146C0.78655 1.74099 0.828688 1.61506 0.894081 1.5009C0.959473 1.38674 1.04683 1.2866 1.15113 1.20625C1.2557 1.11686 1.37764 1.04999 1.50931 1.00982C1.64099 0.969653 1.77956 0.957057 1.91634 0.97282C2.05313 0.988583 2.18518 1.03236 2.30422 1.10143C2.42327 1.17049 2.52674 1.26334 2.60816 1.37416L6.341 6.43706C6.46292 6.62416 6.51849 6.84664 6.49882 7.06895Z" fill="#9CA0B2"/>
</svg>
