<svg width="17" height="16" viewBox="0 0 17 16" fill="none" xmlns="http://www.w3.org/2000/svg">
    <path
        d="M2.83398 12.4999C2.56065 12.4999 2.33398 12.2733 2.33398 11.9999V4.66659C2.33398 1.72659 3.22732 0.833252 6.16732 0.833252H10.834C13.774 0.833252 14.6673 1.72659 14.6673 4.66659V11.3333C14.6673 11.4399 14.6673 11.5399 14.6607 11.6466C14.6407 11.9199 14.394 12.1333 14.1273 12.1133C13.854 12.0933 13.6407 11.8533 13.6607 11.5799C13.6673 11.4999 13.6673 11.4133 13.6673 11.3333V4.66659C13.6673 2.28659 13.2207 1.83325 10.834 1.83325H6.16732C3.78065 1.83325 3.33398 2.28659 3.33398 4.66659V11.9999C3.33398 12.2733 3.10732 12.4999 2.83398 12.4999Z"
        fill="#00377b" />
    <path
        d="M11.834 15.1667H5.16732C3.60732 15.1667 2.33398 13.8933 2.33398 12.3333V11.9C2.33398 10.5733 3.41398 9.5 4.73398 9.5H14.1673C14.4407 9.5 14.6673 9.72667 14.6673 10V12.3333C14.6673 13.8933 13.394 15.1667 11.834 15.1667ZM4.73398 10.5C3.96065 10.5 3.33398 11.1267 3.33398 11.9V12.3333C3.33398 13.3467 4.15398 14.1667 5.16732 14.1667H11.834C12.8473 14.1667 13.6673 13.3467 13.6673 12.3333V10.5H4.73398Z"
        fill="#00377b" />
    <path
        d="M11.1673 5.16675H5.83398C5.56065 5.16675 5.33398 4.94008 5.33398 4.66675C5.33398 4.39341 5.56065 4.16675 5.83398 4.16675H11.1673C11.4407 4.16675 11.6673 4.39341 11.6673 4.66675C11.6673 4.94008 11.4407 5.16675 11.1673 5.16675Z"
        fill="#00377b" />
    <path
        d="M9.16732 7.5H5.83398C5.56065 7.5 5.33398 7.27333 5.33398 7C5.33398 6.72667 5.56065 6.5 5.83398 6.5H9.16732C9.44065 6.5 9.66732 6.72667 9.66732 7C9.66732 7.27333 9.44065 7.5 9.16732 7.5Z"
        fill="#00377b" />
</svg>