<svg width="17" height="16" viewBox="0 0 17 16" fill="none" xmlns="http://www.w3.org/2000/svg">
<path d="M8.50065 12.6334C6.75398 12.6334 5.33398 11.2134 5.33398 9.46672C5.33398 7.72005 6.75398 6.30005 8.50065 6.30005C10.2473 6.30005 11.6673 7.72005 11.6673 9.46672C11.6673 11.2134 10.2473 12.6334 8.50065 12.6334ZM8.50065 7.30005C7.30732 7.30005 6.33398 8.27338 6.33398 9.46672C6.33398 10.66 7.30732 11.6334 8.50065 11.6334C9.69398 11.6334 10.6673 10.66 10.6673 9.46672C10.6673 8.27338 9.69398 7.30005 8.50065 7.30005Z" fill="#6890DF"/>
<path d="M8.12594 10.5532C7.9126 10.5532 7.69927 10.4732 7.53927 10.3132L7.10594 9.8799C6.9126 9.68657 6.9126 9.36657 7.10594 9.17323C7.29927 8.9799 7.61927 8.9799 7.8126 9.17323L8.1326 9.49323L9.20594 8.50657C9.40594 8.3199 9.72594 8.33323 9.9126 8.53323C10.0993 8.73323 10.0859 9.05323 9.88594 9.2399L8.69927 10.3332C8.5326 10.4799 8.3326 10.5532 8.12594 10.5532Z" fill="#6890DF"/>
<path d="M11.1662 15.1666H5.83283C2.75283 15.1666 2.1795 13.7333 2.03283 12.3399L1.53283 6.99993C1.4595 6.29993 1.4395 5.26659 2.13283 4.49326C2.73283 3.82659 3.72617 3.50659 5.16617 3.50659H11.8328C13.2795 3.50659 14.2728 3.83326 14.8662 4.49326C15.5595 5.26659 15.5395 6.29993 15.4662 7.00659L14.9662 12.3333C14.8195 13.7333 14.2462 15.1666 11.1662 15.1666ZM5.16617 4.49993C4.0395 4.49993 3.26617 4.71992 2.87283 5.15992C2.54617 5.51992 2.4395 6.07326 2.52617 6.89993L3.02617 12.2399C3.1395 13.2933 3.42617 14.1666 5.83283 14.1666H11.1662C13.5662 14.1666 13.8595 13.2933 13.9728 12.2333L14.4728 6.90659C14.5595 6.07326 14.4528 5.51992 14.1262 5.15992C13.7328 4.71992 12.9595 4.49993 11.8328 4.49993H5.16617Z" fill="#6890DF"/>
<path d="M11.1673 4.49992C10.894 4.49992 10.6673 4.27325 10.6673 3.99992V3.46659C10.6673 2.27992 10.6673 1.83325 9.03398 1.83325H7.96732C6.33398 1.83325 6.33398 2.27992 6.33398 3.46659V3.99992C6.33398 4.27325 6.10732 4.49992 5.83398 4.49992C5.56065 4.49992 5.33398 4.27325 5.33398 3.99992V3.46659C5.33398 2.29325 5.33398 0.833252 7.96732 0.833252H9.03398C11.6673 0.833252 11.6673 2.29325 11.6673 3.46659V3.99992C11.6673 4.27325 11.4407 4.49992 11.1673 4.49992Z" fill="#6890DF"/>
<path d="M11.1737 9.59345C10.947 9.59345 10.747 9.44012 10.687 9.21345C10.6203 8.94679 10.7803 8.67345 11.047 8.60679C12.347 8.28012 13.5537 7.71345 14.6337 6.92679C14.8537 6.76679 15.167 6.81345 15.3337 7.04012C15.4937 7.26012 15.447 7.57345 15.2203 7.74012C14.0337 8.60012 12.7137 9.22012 11.287 9.58012C11.2537 9.58679 11.2137 9.59345 11.1737 9.59345Z" fill="#6890DF"/>
<path d="M5.83382 9.61326C5.79382 9.61326 5.75382 9.60659 5.71382 9.59993C4.37382 9.27326 3.11382 8.70659 1.96048 7.91993C1.73382 7.7666 1.67382 7.45326 1.82715 7.2266C1.98048 6.99993 2.29382 6.93993 2.52048 7.09326C3.57381 7.81326 4.72048 8.32659 5.94715 8.62659C6.21382 8.69326 6.38048 8.95993 6.31382 9.23326C6.26715 9.45993 6.06048 9.61326 5.83382 9.61326Z" fill="#6890DF"/>
</svg>
