<svg width="25" height="24" viewBox="0 0 25 24" fill="none" xmlns="http://www.w3.org/2000/svg">
    <path
        d="M8.5 5.75C8.09 5.75 7.75 5.41 7.75 5V2C7.75 1.59 8.09 1.25 8.5 1.25C8.91 1.25 9.25 1.59 9.25 2V5C9.25 5.41 8.91 5.75 8.5 5.75Z"
        fill="#00377b" />
    <path
        d="M16.5 5.75C16.09 5.75 15.75 5.41 15.75 5V2C15.75 1.59 16.09 1.25 16.5 1.25C16.91 1.25 17.25 1.59 17.25 2V5C17.25 5.41 16.91 5.75 16.5 5.75Z"
        fill="#00377b" />
    <path
        d="M15.5 22.75H9.5C3.88 22.75 2.75 20.1 2.75 15.82V9.65C2.75 4.91 4.35 2.98 8.46 2.75H16.5C16.51 2.75 16.53 2.75 16.54 2.75C20.65 2.98 22.25 4.91 22.25 9.65V15.82C22.25 20.1 21.12 22.75 15.5 22.75ZM8.5 4.25C5.7 4.41 4.25 5.29 4.25 9.65V15.82C4.25 19.65 4.98 21.25 9.5 21.25H15.5C20.02 21.25 20.75 19.65 20.75 15.82V9.65C20.75 5.3 19.31 4.41 16.48 4.25H8.5Z"
        fill="#00377b" />
    <path
        d="M21.25 18.3501H3.75C3.34 18.3501 3 18.0101 3 17.6001C3 17.1901 3.34 16.8501 3.75 16.8501H21.25C21.66 16.8501 22 17.1901 22 17.6001C22 18.0101 21.66 18.3501 21.25 18.3501Z"
        fill="#00377b" />
    <path
        d="M12.5 8.25C11.27 8.25 10.23 8.92 10.23 10.22C10.23 10.84 10.52 11.31 10.96 11.61C10.35 11.97 10 12.55 10 13.23C10 14.47 10.95 15.24 12.5 15.24C14.04 15.24 15 14.47 15 13.23C15 12.55 14.65 11.96 14.03 11.61C14.48 11.3 14.76 10.84 14.76 10.22C14.76 8.92 13.73 8.25 12.5 8.25ZM12.5 11.09C11.98 11.09 11.6 10.78 11.6 10.29C11.6 9.79 11.98 9.5 12.5 9.5C13.02 9.5 13.4 9.79 13.4 10.29C13.4 10.78 13.02 11.09 12.5 11.09ZM12.5 14C11.84 14 11.36 13.67 11.36 13.07C11.36 12.47 11.84 12.15 12.5 12.15C13.16 12.15 13.64 12.48 13.64 13.07C13.64 13.67 13.16 14 12.5 14Z"
        fill="#00377b" />
</svg>