<svg width="25" height="24" viewBox="0 0 25 24" fill="none" xmlns="http://www.w3.org/2000/svg">
<path d="M15.5 22.75H9.5C4.07 22.75 1.75 20.43 1.75 15V9C1.75 3.57 4.07 1.25 9.5 1.25H15.5C20.93 1.25 23.25 3.57 23.25 9V15C23.25 20.43 20.93 22.75 15.5 22.75ZM9.5 2.75C4.89 2.75 3.25 4.39 3.25 9V15C3.25 19.61 4.89 21.25 9.5 21.25H15.5C20.11 21.25 21.75 19.61 21.75 15V9C21.75 4.39 20.11 2.75 15.5 2.75H9.5Z" fill="#6890DF"/>
<path d="M16 19.25C14.48 19.25 13.25 18.02 13.25 16.5V7.5C13.25 5.98 14.48 4.75 16 4.75C17.52 4.75 18.75 5.98 18.75 7.5V16.5C18.75 18.02 17.52 19.25 16 19.25ZM16 6.25C15.31 6.25 14.75 6.81 14.75 7.5V16.5C14.75 17.19 15.31 17.75 16 17.75C16.69 17.75 17.25 17.19 17.25 16.5V7.5C17.25 6.81 16.69 6.25 16 6.25Z" fill="#6890DF"/>
<path d="M9 19.25C7.48 19.25 6.25 18.02 6.25 16.5V13C6.25 11.48 7.48 10.25 9 10.25C10.52 10.25 11.75 11.48 11.75 13V16.5C11.75 18.02 10.52 19.25 9 19.25ZM9 11.75C8.31 11.75 7.75 12.31 7.75 13V16.5C7.75 17.19 8.31 17.75 9 17.75C9.69 17.75 10.25 17.19 10.25 16.5V13C10.25 12.31 9.69 11.75 9 11.75Z" fill="#6890DF"/>
</svg>
