<svg width="29" height="28" viewBox="0 0 29 28" fill="none" xmlns="http://www.w3.org/2000/svg">
<path d="M21.5003 9.7998V12.5998C21.5003 14.085 20.9103 15.5094 19.8601 16.5596C18.8099 17.6098 17.3855 18.1998 15.9003 18.1998H14.2595L11.7871 20.6736C12.1791 20.8822 12.6257 20.9998 13.1003 20.9998H15.9003L20.1003 25.1998V20.9998H22.9003C23.6429 20.9998 24.3551 20.7048 24.8802 20.1797C25.4053 19.6546 25.7003 18.9424 25.7003 18.1998V12.5998C25.7003 11.8572 25.4053 11.145 24.8802 10.6199C24.3551 10.0948 23.6429 9.7998 22.9003 9.7998H21.5003Z" fill="#799AD6"/>
<path d="M3.30078 7.0002C3.30078 6.25759 3.59578 5.5454 4.12088 5.0203C4.64598 4.49519 5.35818 4.2002 6.10078 4.2002H15.9008C16.6434 4.2002 17.3556 4.49519 17.8807 5.0203C18.4058 5.5454 18.7008 6.25759 18.7008 7.0002V12.6002C18.7008 13.3428 18.4058 14.055 17.8807 14.5801C17.3556 15.1052 16.6434 15.4002 15.9008 15.4002H13.1008L8.90078 19.6002V15.4002H6.10078C5.35818 15.4002 4.64598 15.1052 4.12088 14.5801C3.59578 14.055 3.30078 13.3428 3.30078 12.6002V7.0002Z" fill="#317BFF"/>
</svg>
