<svg width="13" height="6" viewBox="0 0 13 6" fill="none" xmlns="http://www.w3.org/2000/svg">
<path d="M6.48902 5.9993C6.25585 5.99976 6.02987 5.91838 5.85033 5.7693L0.860516 1.7693C0.656716 1.59956 0.528553 1.35565 0.504223 1.09122C0.479893 0.826796 0.561388 0.563515 0.730781 0.359299C0.900174 0.155082 1.14359 0.0266581 1.40748 0.0022784C1.67136 -0.0221013 1.93411 0.05956 2.13791 0.229299L6.48902 3.7093L10.8401 0.389299C10.9422 0.306233 11.0597 0.244202 11.1858 0.20677C11.3118 0.169338 11.4441 0.157244 11.5748 0.171184C11.7056 0.185123 11.8323 0.22482 11.9477 0.287993C12.0631 0.351167 12.1649 0.436572 12.2473 0.539299C12.3387 0.64212 12.4079 0.762747 12.4506 0.893621C12.4933 1.02449 12.5086 1.16279 12.4954 1.29986C12.4823 1.43692 12.4411 1.56979 12.3744 1.69015C12.3076 1.81051 12.2168 1.91575 12.1075 1.9993L7.11774 5.8293C6.93303 5.95481 6.71167 6.01467 6.48902 5.9993Z" fill="#262E3D"/>
</svg>
