<svg width="16" height="17" viewBox="0 0 16 17" fill="none" xmlns="http://www.w3.org/2000/svg">
<path d="M10.794 1.83325H5.20732C2.78065 1.83325 1.33398 3.27992 1.33398 5.70659V11.2866C1.33398 13.7199 2.78065 15.1666 5.20732 15.1666H10.7873C13.214 15.1666 14.6607 13.7199 14.6607 11.2933V5.70659C14.6673 3.27992 13.2207 1.83325 10.794 1.83325ZM10.5007 10.9999H5.50065C5.22732 10.9999 5.00065 10.7733 5.00065 10.4999C5.00065 10.2266 5.22732 9.99992 5.50065 9.99992H10.5007C10.774 9.99992 11.0007 10.2266 11.0007 10.4999C11.0007 10.7733 10.774 10.9999 10.5007 10.9999ZM10.5007 6.99992H5.50065C5.22732 6.99992 5.00065 6.77325 5.00065 6.49992C5.00065 6.22659 5.22732 5.99992 5.50065 5.99992H10.5007C10.774 5.99992 11.0007 6.22659 11.0007 6.49992C11.0007 6.77325 10.774 6.99992 10.5007 6.99992Z" fill="#00377B"/>
</svg>
