<svg width="25" height="24" viewBox="0 0 25 24" fill="none" xmlns="http://www.w3.org/2000/svg">
    <path
        d="M16.3101 20.18C16.0501 20.18 15.7801 20.17 15.4901 20.14C14.9701 20.1 14.3801 20 13.7701 19.85L12.0901 19.45C7.48007 18.36 5.97007 15.92 7.05007 11.32L8.03007 7.13001C8.25007 6.18002 8.51007 5.41002 8.83007 4.77002C10.5501 1.22002 13.8401 1.54001 16.1801 2.09001L17.8501 2.48001C20.1901 3.03001 21.6701 3.90001 22.5001 5.23002C23.3201 6.56002 23.4501 8.27001 22.9001 10.61L21.9201 14.79C21.0601 18.45 19.2701 20.18 16.3101 20.18ZM13.6201 3.25001C11.9501 3.25001 10.8901 3.94002 10.1801 5.42002C9.92007 5.96002 9.69007 6.63001 9.49007 7.47001L8.51007 11.66C7.62007 15.44 8.65007 17.09 12.4301 17.99L14.1101 18.39C14.6501 18.52 15.1601 18.6 15.6201 18.64C18.3401 18.91 19.6901 17.72 20.4501 14.45L21.4301 10.27C21.8801 8.34002 21.8201 6.99002 21.2201 6.02001C20.6201 5.05001 19.4401 4.39002 17.5001 3.94002L15.8301 3.55001C15.0001 3.35001 14.2601 3.25001 13.6201 3.25001Z"
        fill="#6890DF" />
    <path
        d="M8.82907 22.2499C6.25908 22.2499 4.61907 20.7099 3.56907 17.4599L2.28907 13.5099C0.869075 9.10993 2.13907 6.62993 6.51907 5.20993L8.09907 4.69993C8.61907 4.53993 9.00907 4.42993 9.35907 4.36993C9.64907 4.30993 9.92908 4.41993 10.0991 4.64993C10.2691 4.87993 10.2991 5.17993 10.1791 5.43993C9.91908 5.96993 9.68907 6.63993 9.49907 7.47993L8.51908 11.6699C7.62908 15.4499 8.65907 17.0999 12.4391 17.9999L14.1191 18.3999C14.6591 18.5299 15.1691 18.6099 15.6291 18.6499C15.9491 18.6799 16.2091 18.8999 16.2991 19.2099C16.3791 19.5199 16.2591 19.8399 15.9991 20.0199C15.3391 20.4699 14.5091 20.8499 13.4591 21.1899L11.8791 21.7099C10.7291 22.0699 9.72907 22.2499 8.82907 22.2499ZM8.27908 6.21993L6.98907 6.63993C3.41907 7.78993 2.56907 9.46993 3.71907 13.0499L4.99907 16.9999C6.15907 20.5699 7.83908 21.4299 11.4091 20.2799L12.9891 19.7599C13.0491 19.7399 13.0991 19.7199 13.1591 19.6999L12.0991 19.4499C7.48908 18.3599 5.97907 15.9199 7.05907 11.3199L8.03907 7.12993C8.10908 6.80993 8.18907 6.49993 8.27908 6.21993Z"
        fill="#6890DF" />
    <path
        d="M17.9894 10.51C17.9294 10.51 17.8694 10.5 17.7994 10.49L12.9494 9.26002C12.5494 9.16002 12.3094 8.75002 12.4094 8.35002C12.5094 7.95002 12.9194 7.71002 13.3194 7.81002L18.1694 9.04002C18.5694 9.14002 18.8094 9.55002 18.7094 9.95002C18.6294 10.28 18.3194 10.51 17.9894 10.51Z"
        fill="#6890DF" />
    <path
        d="M15.0592 13.8899C14.9992 13.8899 14.9392 13.8799 14.8692 13.8699L11.9592 13.1299C11.5592 13.0299 11.3192 12.6199 11.4192 12.2199C11.5192 11.8199 11.9292 11.5799 12.3292 11.6799L15.2392 12.4199C15.6392 12.5199 15.8792 12.9299 15.7792 13.3299C15.6992 13.6699 15.3992 13.8899 15.0592 13.8899Z"
        fill="#6890DF" />
</svg>