<svg width="13" height="6" viewBox="0 0 13 6" fill="none" xmlns="http://www.w3.org/2000/svg">
<path d="M6.45131 0.000652885C6.68444 -0.00436702 6.91196 0.0725698 7.09439 0.218108L12.1615 4.11969C12.3686 4.2854 12.5015 4.52676 12.531 4.79066C12.5605 5.05456 12.4842 5.31939 12.3188 5.52688C12.1535 5.73437 11.9126 5.86753 11.6493 5.89707C11.3859 5.92661 11.1216 5.85011 10.9145 5.68439L6.49613 2.29021L2.21082 5.69473C2.11039 5.77978 1.99417 5.8441 1.86885 5.88399C1.74352 5.92388 1.61156 5.93856 1.48055 5.92719C1.34954 5.91581 1.22207 5.8786 1.10545 5.8177C0.988837 5.75679 0.885381 5.6734 0.801032 5.5723C0.707644 5.47129 0.636079 5.35204 0.59082 5.22203C0.545561 5.09201 0.527586 4.95404 0.538017 4.81675C0.548449 4.67945 0.587062 4.5458 0.651441 4.42416C0.715819 4.30252 0.804576 4.19551 0.912148 4.10985L5.82605 0.182925C6.00826 0.0538181 6.22841 -0.0103576 6.45131 0.000652885Z" fill="#6890DF"/>
</svg>
