<svg width="17" height="16" viewBox="0 0 17 16" fill="none" xmlns="http://www.w3.org/2000/svg">
    <path
        d="M11.834 13.6666H5.16732C3.16732 13.6666 1.83398 12.6666 1.83398 10.3333V5.66659C1.83398 3.33325 3.16732 2.33325 5.16732 2.33325H11.834C13.834 2.33325 15.1673 3.33325 15.1673 5.66659V10.3333C15.1673 12.6666 13.834 13.6666 11.834 13.6666Z"
        stroke="#00377b" stroke-miterlimit="10" stroke-linecap="round" stroke-linejoin="round" />
    <path
        d="M8.5 10C9.60457 10 10.5 9.10457 10.5 8C10.5 6.89543 9.60457 6 8.5 6C7.39543 6 6.5 6.89543 6.5 8C6.5 9.10457 7.39543 10 8.5 10Z"
        stroke="#00377b" stroke-miterlimit="10" stroke-linecap="round" stroke-linejoin="round" />
    <path d="M4.16602 6.33325V9.66659" stroke="#00377b" stroke-miterlimit="10" stroke-linecap="round"
        stroke-linejoin="round" />
    <path d="M12.834 6.33325V9.66659" stroke="#00377b" stroke-miterlimit="10" stroke-linecap="round"
        stroke-linejoin="round" />
</svg>