<svg width="16" height="16" viewBox="0 0 16 16" fill="none" xmlns="http://www.w3.org/2000/svg">
<path d="M12.6666 8.90625H1.33325C1.05992 8.90625 0.833252 8.67958 0.833252 8.40625C0.833252 8.13292 1.05992 7.90625 1.33325 7.90625H12.6666C12.9399 7.90625 13.1666 8.13292 13.1666 8.40625C13.1666 8.67958 12.9399 8.90625 12.6666 8.90625Z" fill="#0E39B6"/>
<path d="M10.1466 14.5005H3.85327C1.5666 14.5005 0.833252 13.7739 0.833252 11.5139V6.85385C0.833252 5.06052 1.23993 4.00052 3.3066 3.88052C3.47993 3.87385 3.65994 3.86719 3.85327 3.86719H10.1466C12.4332 3.86719 13.1666 4.59385 13.1666 6.85385V11.6205C13.1399 13.8005 12.4066 14.5005 10.1466 14.5005ZM3.85327 4.86719C3.67327 4.86719 3.5066 4.87385 3.35327 4.88052C2.15994 4.95385 1.83325 5.20719 1.83325 6.85385V11.5139C1.83325 13.2205 2.11327 13.5005 3.85327 13.5005H10.1466C11.8666 13.5005 12.1466 13.2339 12.1666 11.6139V6.85385C12.1666 5.14719 11.8866 4.86719 10.1466 4.86719H3.85327Z" fill="#0E39B6"/>
<path d="M12.6666 12.12C12.5399 12.12 12.4132 12.0733 12.3266 11.9867C12.2266 11.8933 12.1666 11.76 12.1666 11.62V6.85333C12.1666 5.14667 11.8866 4.86667 10.1466 4.86667H3.85327C3.67327 4.86667 3.5066 4.87333 3.35327 4.88C3.21994 4.88667 3.08657 4.83333 2.98657 4.74C2.88657 4.64667 2.83325 4.51333 2.83325 4.37333C2.85992 2.2 3.59327 1.5 5.85327 1.5H12.1466C14.4332 1.5 15.1666 2.22667 15.1666 4.48667V9.14667C15.1666 10.94 14.7599 12 12.6932 12.12C12.6866 12.12 12.6733 12.12 12.6666 12.12ZM3.85327 3.86667H10.1466C12.4332 3.86667 13.1666 4.59333 13.1666 6.85333V11.0667C13.9399 10.9267 14.1666 10.5267 14.1666 9.14667V4.48667C14.1666 2.78 13.8866 2.5 12.1466 2.5H5.85327C4.33327 2.5 3.93994 2.70667 3.85327 3.86667Z" fill="#0E39B6"/>
<path d="M4.6401 12.373H3.49341C3.22007 12.373 2.99341 12.1464 2.99341 11.873C2.99341 11.5997 3.22007 11.373 3.49341 11.373H4.6401C4.91343 11.373 5.1401 11.5997 5.1401 11.873C5.1401 12.1464 4.9201 12.373 4.6401 12.373Z" fill="#0E39B6"/>
<path d="M8.36658 12.373H6.07324C5.79991 12.373 5.57324 12.1464 5.57324 11.873C5.57324 11.5997 5.79991 11.373 6.07324 11.373H8.36658C8.63991 11.373 8.86658 11.5997 8.86658 11.873C8.86658 12.1464 8.64658 12.373 8.36658 12.373Z" fill="#0E39B6"/>
</svg>
