<svg width="16" height="16" viewBox="0 0 16 16" fill="none" xmlns="http://www.w3.org/2000/svg">
<g id="vuesax/outline/coin">
<g id="coin">
<path id="Vector" d="M7.22671 9.02647H6.22671C5.46004 9.02647 4.84004 8.38647 4.84004 7.59314C4.84004 7.31981 5.06671 7.09314 5.34004 7.09314C5.61337 7.09314 5.84004 7.31981 5.84004 7.59314C5.84004 7.83314 6.01337 8.02647 6.22671 8.02647H7.22671C7.38004 8.02647 7.50004 7.88647 7.50004 7.71314C7.50004 7.4798 7.46004 7.46647 7.30671 7.41314L5.70004 6.85314C5.12004 6.65314 4.83337 6.24647 4.83337 5.61314C4.83337 4.89314 5.40671 4.2998 6.10671 4.2998H7.10671C7.87337 4.2998 8.49337 4.93981 8.49337 5.73314C8.49337 6.00647 8.26671 6.23314 7.99337 6.23314C7.72004 6.23314 7.49337 6.00647 7.49337 5.73314C7.49337 5.49314 7.32004 5.2998 7.10671 5.2998H6.10671C5.95337 5.2998 5.83337 5.4398 5.83337 5.61314C5.83337 5.84647 5.87337 5.8598 6.02671 5.91314L7.63337 6.47314C8.21337 6.6798 8.49337 7.08647 8.49337 7.71314C8.50004 8.4398 7.92671 9.02647 7.22671 9.02647Z" fill="#0E39B6"/>
<path id="Vector_2" d="M6.66663 9.56023C6.39329 9.56023 6.16663 9.33356 6.16663 9.06023V8.56689C6.16663 8.29356 6.39329 8.06689 6.66663 8.06689C6.93996 8.06689 7.16663 8.29356 7.16663 8.56689V9.06023C7.16663 9.34023 6.93996 9.56023 6.66663 9.56023Z" fill="#0E39B6"/>
<path id="Vector_3" d="M6.66663 5.29344C6.39329 5.29344 6.16663 5.06677 6.16663 4.79344V4.27344C6.16663 4.0001 6.39329 3.77344 6.66663 3.77344C6.93996 3.77344 7.16663 4.0001 7.16663 4.27344V4.79344C7.16663 5.06677 6.93996 5.29344 6.66663 5.29344Z" fill="#0E39B6"/>
<path id="Vector_4" d="M6.66004 12.48C3.44671 12.48 0.833374 9.86666 0.833374 6.65333C0.833374 3.43999 3.44671 0.82666 6.66004 0.82666C9.87337 0.82666 12.4867 3.43999 12.4867 6.65333C12.4867 9.86666 9.86671 12.48 6.66004 12.48ZM6.66004 1.83333C4.00004 1.83333 1.83337 3.99999 1.83337 6.65999C1.83337 9.31999 4.00004 11.48 6.66004 11.48C9.32004 11.48 11.4867 9.31333 11.4867 6.65333C11.4867 3.99333 9.32004 1.83333 6.66004 1.83333Z" fill="#0E39B6"/>
<path id="Vector_5" d="M11.3467 15.1469C10.1134 15.1469 8.95339 14.5469 8.24006 13.5335C8.08006 13.3069 8.13339 12.9935 8.36006 12.8335C8.58672 12.6735 8.90006 12.7269 9.06006 12.9535C9.58672 13.7002 10.4401 14.1402 11.3467 14.1402C12.8934 14.1402 14.1467 12.8869 14.1467 11.3402C14.1467 10.4402 13.7067 9.58686 12.9734 9.06019C12.7467 8.90019 12.7001 8.58685 12.8601 8.36019C13.0201 8.13352 13.3334 8.08685 13.5601 8.24685C14.5534 8.96019 15.1467 10.1135 15.1467 11.3402C15.1467 13.4469 13.4467 15.1469 11.3467 15.1469Z" fill="#0E39B6"/>
</g>
</g>
</svg>
