<?xml version="1.0" standalone="no"?>
<!DOCTYPE svg PUBLIC "-//W3C//DTD SVG 20010904//EN" "http://www.w3.org/TR/2001/REC-SVG-20010904/DTD/svg10.dtd">
<svg version="1.0" xmlns="http://www.w3.org/2000/svg" width="1280.000000pt" height="1280.000000pt"
    viewBox="0 0 1280.000000 1280.000000" preserveAspectRatio="xMidYMid meet">
    <metadata>
        Created by potrace 1.15, written by Peter Selinger 2001-2017
    </metadata>
    <g transform="translate(0.000000,1280.000000) scale(0.100000,-0.100000)" fill="#b00020" stroke="none">
        <path d="M6060 12794 c-909 -54 -1742 -278 -2545 -684 -1381 -698 -2470 -1882
-3050 -3316 -235 -581 -378 -1176 -442 -1839 -24 -252 -24 -858 0 -1110 107
-1113 456 -2102 1060 -3005 363 -543 834 -1051 1352 -1461 803 -636 1746
-1069 2750 -1263 419 -81 740 -110 1215 -110 403 0 571 11 910 60 1219 175
2332 683 3280 1498 145 125 460 436 593 586 841 951 1375 2101 1551 3340 49
341 60 508 60 910 0 402 -11 570 -60 910 -225 1578 -1028 3003 -2274 4035
-414 343 -920 658 -1420 885 -662 300 -1339 477 -2090 546 -157 14 -748 26
-890 18z m800 -1114 c312 -31 562 -73 842 -144 1212 -308 2263 -1024 3005
-2051 874 -1209 1191 -2756 867 -4230 -31 -143 -71 -295 -79 -303 -3 -3 -339
148 -1775 795 -201 90 -580 261 -843 380 l-479 215 -126 127 c-133 133 -219
196 -397 293 -253 138 -502 232 -990 373 -472 136 -685 208 -862 290 -159 74
-237 141 -286 243 -27 58 -29 70 -25 151 5 114 36 179 119 255 98 88 212 139
379 168 96 16 528 16 665 -1 267 -33 468 -114 680 -276 l83 -63 338 368 c186
202 340 373 342 380 9 25 -167 180 -303 268 -93 60 -305 161 -433 206 -199 70
-487 132 -740 159 l-113 12 1 463 0 462 -330 0 -330 0 0 -468 0 -469 -107 -17
c-531 -85 -918 -311 -1167 -681 -82 -122 -167 -315 -197 -449 -7 -32 -18 -60
-23 -62 -6 -2 -227 93 -491 212 -2301 1037 -2137 962 -2143 969 -6 6 102 165
221 324 603 807 1437 1432 2382 1786 488 182 1050 302 1550 329 121 6 655 -3
765 -14z m-5269 -3544 c90 -40 506 -227 924 -416 1115 -502 1860 -838 2115
-953 190 -85 234 -109 284 -154 243 -218 836 -490 1526 -698 250 -76 251 -76
529 -201 236 -106 245 -111 316 -179 42 -40 84 -92 99 -122 93 -185 32 -577
-110 -702 -71 -63 -243 -122 -444 -153 -115 -18 -555 -17 -675 0 -437 66 -746
198 -950 407 l-80 82 -395 -363 c-217 -200 -396 -367 -398 -372 -5 -17 65
-110 143 -187 273 -273 804 -497 1428 -601 l167 -28 2 -460 3 -461 325 0 325
0 3 439 c2 337 5 442 15 448 6 4 33 8 59 8 63 0 263 35 373 65 329 89 649 281
953 569 147 139 286 335 372 519 39 86 110 296 110 329 0 10 2 18 4 18 4 0
401 -179 1736 -780 333 -150 628 -283 657 -296 l52 -23 -78 -133 c-699 -1196
-1817 -2063 -3144 -2438 -1544 -437 -3214 -145 -4517 789 -726 521 -1310 1215
-1694 2013 -536 1115 -666 2363 -370 3566 48 196 155 542 168 542 1 0 76 -33
167 -74z" />
    </g>
</svg>