<?xml version="1.0" standalone="no"?>
<!DOCTYPE svg PUBLIC "-//W3C//DTD SVG 20010904//EN" "http://www.w3.org/TR/2001/REC-SVG-20010904/DTD/svg10.dtd">
<svg version="1.0" xmlns="http://www.w3.org/2000/svg" width="668.000000pt" height="673.000000pt"
    viewBox="0 0 668.000000 673.000000" preserveAspectRatio="xMidYMid meet">
    <metadata>
        Created by potrace 1.16, written by Peter Selinger 2001-2019
    </metadata>
    <g transform="translate(0.000000,673.000000) scale(0.100000,-0.100000)" fill="#b00020" stroke="none">
        <path d="M3040 6655 c-410 -65 -759 -246 -1041 -543 -129 -136 -216 -261 -304
-437 -84 -169 -133 -320 -166 -508 -29 -166 -24 -477 10 -635 112 -529 446
-977 913 -1227 78 -42 81 -44 52 -50 -129 -29 -436 -145 -605 -230 -733 -369
-1310 -1040 -1559 -1816 -94 -291 -150 -624 -150 -888 l0 -123 38 -38 c31 -32
47 -39 92 -44 30 -4 984 -6 2120 -4 2003 3 2066 4 2096 22 43 26 64 66 64 120
0 39 -6 52 -34 84 l-34 37 -2038 3 -2037 2 7 98 c35 500 229 1022 535 1442
169 231 406 467 641 636 401 289 885 472 1379 519 988 96 1947 -325 2547
-1119 72 -94 111 -126 159 -126 68 0 135 66 135 133 0 41 -29 90 -122 207
-391 490 -876 828 -1475 1031 -62 21 -128 41 -148 45 -19 3 -38 10 -41 15 -2
5 27 24 65 43 244 124 504 362 664 611 364 567 379 1290 38 1873 -99 170 -288
385 -446 508 -243 189 -535 313 -846 358 -129 19 -388 19 -509 1z m376 -255
c687 -55 1252 -563 1381 -1241 27 -143 24 -440 -5 -575 -30 -141 -65 -241
-127 -369 -216 -443 -628 -751 -1119 -836 -156 -27 -408 -23 -556 9 -582 127
-1028 557 -1174 1132 -110 432 -6 931 268 1285 262 339 664 561 1078 595 51 4
100 8 109 9 9 0 74 -4 145 -9z" />
        <path d="M4963 1521 c-41 -26 -63 -69 -63 -123 0 -42 1 -43 285 -328 157 -157
285 -290 285 -295 0 -6 -127 -137 -282 -293 l-283 -282 0 -61 c0 -59 2 -63 39
-95 32 -28 47 -34 85 -34 27 0 57 7 71 16 14 10 146 137 293 283 147 146 270
268 273 270 2 3 134 -124 292 -282 l288 -287 53 0 c49 0 57 3 92 39 36 35 39
43 39 92 l0 53 -287 288 -288 288 90 91 c50 49 161 161 248 247 209 206 237
242 237 295 0 85 -65 144 -148 134 -43 -5 -54 -14 -331 -291 l-286 -286 -286
286 -287 287 -48 4 c-37 3 -57 -1 -81 -16z" />
    </g>
</svg>