<svg width="16" height="16" viewBox="0 0 16 16" fill="none" xmlns="http://www.w3.org/2000/svg">
<path d="M12.6668 8.90674H1.3335C1.06016 8.90674 0.833496 8.68007 0.833496 8.40674C0.833496 8.13341 1.06016 7.90674 1.3335 7.90674H12.6668C12.9402 7.90674 13.1668 8.13341 13.1668 8.40674C13.1668 8.68007 12.9402 8.90674 12.6668 8.90674Z" fill="#0E39B6"/>
<path d="M10.1468 14.5H3.85352C1.56685 14.5 0.833496 13.7734 0.833496 11.5134V6.85337C0.833496 5.06003 1.24018 4.00003 3.30684 3.88003C3.48018 3.87337 3.66018 3.8667 3.85352 3.8667H10.1468C12.4335 3.8667 13.1668 4.59337 13.1668 6.85337V11.62C13.1402 13.8 12.4068 14.5 10.1468 14.5ZM3.85352 4.8667C3.67352 4.8667 3.50685 4.87337 3.35352 4.88003C2.16018 4.95337 1.8335 5.2067 1.8335 6.85337V11.5134C1.8335 13.22 2.11352 13.5 3.85352 13.5H10.1468C11.8668 13.5 12.1468 13.2334 12.1668 11.6134V6.85337C12.1668 5.1467 11.8868 4.8667 10.1468 4.8667H3.85352Z" fill="#0E39B6"/>
<path d="M12.6668 12.12C12.5402 12.12 12.4135 12.0733 12.3268 11.9867C12.2268 11.8933 12.1668 11.76 12.1668 11.62V6.85333C12.1668 5.14667 11.8868 4.86667 10.1468 4.86667H3.85352C3.67352 4.86667 3.50685 4.87333 3.35352 4.88C3.22018 4.88667 3.08682 4.83333 2.98682 4.74C2.88682 4.64667 2.8335 4.51333 2.8335 4.37333C2.86016 2.2 3.59352 1.5 5.85352 1.5H12.1468C14.4335 1.5 15.1668 2.22667 15.1668 4.48667V9.14667C15.1668 10.94 14.7601 12 12.6935 12.12C12.6868 12.12 12.6735 12.12 12.6668 12.12ZM3.85352 3.86667H10.1468C12.4335 3.86667 13.1668 4.59333 13.1668 6.85333V11.0667C13.9402 10.9267 14.1668 10.5267 14.1668 9.14667V4.48667C14.1668 2.78 13.8868 2.5 12.1468 2.5H5.85352C4.33352 2.5 3.94018 2.70667 3.85352 3.86667Z" fill="#0E39B6"/>
<path d="M4.64034 12.3733H3.49365C3.22032 12.3733 2.99365 12.1466 2.99365 11.8733C2.99365 11.6 3.22032 11.3733 3.49365 11.3733H4.64034C4.91367 11.3733 5.14034 11.6 5.14034 11.8733C5.14034 12.1466 4.92034 12.3733 4.64034 12.3733Z" fill="#0E39B6"/>
<path d="M8.36658 12.3733H6.07324C5.79991 12.3733 5.57324 12.1466 5.57324 11.8733C5.57324 11.6 5.79991 11.3733 6.07324 11.3733H8.36658C8.63991 11.3733 8.86658 11.6 8.86658 11.8733C8.86658 12.1466 8.64658 12.3733 8.36658 12.3733Z" fill="#0E39B6"/>
</svg>
