<svg width="26" height="16" viewBox="0 0 26 16" fill="none" xmlns="http://www.w3.org/2000/svg">
<g id="Mastercard">
<path id="Left" d="M18.0392 0.649902C22.1738 0.649985 25.5255 3.89501 25.5255 7.89795C25.5255 11.9009 22.1739 15.1459 18.0392 15.146C16.1854 15.146 14.4903 14.4921 13.1827 13.4116C11.8752 14.492 10.18 15.146 8.32629 15.146C4.19168 15.1458 0.839966 11.9009 0.839966 7.89795C0.840015 3.89506 4.19171 0.650071 8.32629 0.649902C10.1798 0.649902 11.8753 1.30317 13.1827 2.3833C14.4902 1.30312 16.1857 0.649902 18.0392 0.649902Z" fill="#ED0006"/>
<path id="Right" d="M18.0393 0.649902C22.1739 0.650029 25.5256 3.89503 25.5256 7.89795C25.5256 11.9009 22.174 15.1459 18.0393 15.146C16.1855 15.146 14.4904 14.4921 13.1829 13.4116C14.7917 12.0822 15.8137 10.1063 15.8137 7.89795C15.8137 5.68941 14.792 3.71272 13.1829 2.3833C14.4903 1.30314 16.1858 0.649902 18.0393 0.649902Z" fill="#F9A000"/>
<path id="Middle" d="M13.1824 2.3833C14.7917 3.71273 15.8132 5.68926 15.8132 7.89795C15.8132 10.1064 14.7914 12.0822 13.1824 13.4116C11.5737 12.0822 10.5525 10.1061 10.5525 7.89795C10.5525 5.68955 11.5734 3.71273 13.1824 2.3833Z" fill="#FF5E00"/>
</g>
</svg>
