<svg width="16" height="16" viewBox="0 0 16 16" fill="none" xmlns="http://www.w3.org/2000/svg">
<g id="vuesax/outline/wallet">
<g id="wallet">
<path id="Vector" d="M3.46667 6.97341C3.34 6.97341 3.20667 6.92008 3.11333 6.82675C2.97333 6.68008 2.92667 6.46675 3.00667 6.28008L4.24667 3.32008C4.27333 3.26008 4.28667 3.22008 4.30667 3.18675C5.29333 0.913414 6.55333 0.360081 8.78 1.21341C8.90667 1.26008 9.00667 1.36008 9.06 1.48675C9.11333 1.61341 9.11333 1.75341 9.06 1.88008L7.10667 6.41341C7.02667 6.60008 6.84667 6.71341 6.64667 6.71341H4.74667C4.36667 6.71341 4.00667 6.78675 3.66 6.93341C3.6 6.96008 3.53333 6.97341 3.46667 6.97341ZM7.07333 1.83341C6.24667 1.83341 5.74 2.37341 5.21333 3.60008C5.20667 3.62008 5.19333 3.64008 5.18667 3.66008L4.31333 5.73341C4.46 5.72008 4.6 5.71341 4.74667 5.71341H6.31333L7.92 1.98008C7.60667 1.88008 7.32667 1.83341 7.07333 1.83341Z" fill="#0E39B6"/>
<path id="Vector_2" d="M12.1933 6.84683C12.1467 6.84683 12.0933 6.84016 12.0467 6.82683C11.7933 6.75349 11.5267 6.71349 11.2467 6.71349H6.64666C6.47999 6.71349 6.31999 6.62683 6.22666 6.48682C6.13999 6.34683 6.11999 6.16683 6.18666 6.01349L8.11999 1.52683C8.21999 1.28683 8.51332 1.12016 8.75999 1.20683C8.83999 1.23349 8.91332 1.26683 8.99332 1.30016L10.5667 1.96016C11.4867 2.34016 12.1 2.74016 12.5 3.22016C12.58 3.31349 12.6467 3.41349 12.7133 3.52016C12.7867 3.63349 12.8533 3.76683 12.9 3.90683C12.92 3.95349 12.9533 4.04016 12.9733 4.13349C13.16 4.76683 13.0667 5.54016 12.6667 6.54016C12.58 6.72683 12.3933 6.84683 12.1933 6.84683ZM7.40666 5.71349H11.2533C11.4667 5.71349 11.6733 5.73349 11.88 5.76683C12.0667 5.18683 12.1067 4.74016 12 4.38016C11.9867 4.32016 11.9733 4.29349 11.9667 4.26683C11.9267 4.16016 11.9 4.10016 11.8667 4.04683C11.82 3.97349 11.7867 3.91349 11.7333 3.85349C11.4467 3.50683 10.94 3.18683 10.18 2.87349L8.86666 2.32683L7.40666 5.71349Z" fill="#0E39B6"/>
<path id="Vector_3" d="M10.6 15.1667H5.4C5.21333 15.1667 5.04 15.1534 4.86667 15.1334C2.52667 14.98 1.19333 13.64 1.03333 11.2734C1.01333 11.1267 1 10.9467 1 10.7667V9.46671C1 7.96671 1.89333 6.61338 3.27333 6.01338C3.74667 5.81338 4.24 5.71338 4.75333 5.71338H11.26C11.64 5.71338 12.0067 5.76671 12.3467 5.87338C13.9133 6.34671 15.0133 7.82671 15.0133 9.46671V10.7667C15.0133 10.9134 15.0067 11.0534 15 11.1867C14.8533 13.7934 13.3333 15.1667 10.6 15.1667ZM4.74667 6.71338C4.36667 6.71338 4.00667 6.78671 3.66 6.93338C2.64667 7.37338 1.99333 8.36671 1.99333 9.46671V10.7667C1.99333 10.9067 2.00667 11.0467 2.02 11.18C2.14667 13.08 3.08 14.0134 4.95333 14.14C5.12 14.16 5.25333 14.1734 5.39333 14.1734H10.5933C12.7933 14.1734 13.8733 13.2067 13.98 11.14C13.9867 11.02 13.9933 10.9 13.9933 10.7667V9.46671C13.9933 8.26005 13.1867 7.18005 12.04 6.82671C11.7867 6.75338 11.52 6.71338 11.24 6.71338H4.74667Z" fill="#0E39B6"/>
<path id="Vector_4" d="M1.49329 9.96653C1.21995 9.96653 0.993286 9.73987 0.993286 9.46653V7.5132C0.993286 5.4132 2.47995 3.59987 4.53329 3.19987C4.71329 3.16653 4.89995 3.2332 5.01995 3.3732C5.13329 3.5132 5.16662 3.7132 5.09329 3.87987L3.92662 6.66653C3.87329 6.78653 3.77995 6.87987 3.66662 6.9332C2.65329 7.3732 1.99995 8.36653 1.99995 9.46653C1.99329 9.73987 1.77329 9.96653 1.49329 9.96653ZM3.73329 4.54653C2.87995 5.02653 2.25995 5.86653 2.06662 6.84653C2.35995 6.54653 2.69995 6.2932 3.08662 6.10653L3.73329 4.54653Z" fill="#0E39B6"/>
<path id="Vector_5" d="M14.5066 9.96652C14.2333 9.96652 14.0066 9.73985 14.0066 9.46652C14.0066 8.25985 13.2 7.17985 12.0533 6.82652C11.92 6.78652 11.8066 6.69319 11.7466 6.56652C11.6866 6.43985 11.68 6.29319 11.7333 6.16652C12.0466 5.38652 12.1266 4.81985 12 4.37985C11.9866 4.31985 11.9733 4.29319 11.9666 4.26652C11.88 4.07319 11.9266 3.84652 12.08 3.69985C12.2333 3.55319 12.4666 3.51985 12.6533 3.61985C14.1066 4.37985 15.0066 5.87319 15.0066 7.51319V9.46652C15.0066 9.73985 14.78 9.96652 14.5066 9.96652ZM12.8333 6.05985C13.2533 6.25319 13.6266 6.52652 13.94 6.85319C13.8133 6.19985 13.5 5.60652 13.04 5.13985C13.0066 5.41985 12.94 5.72652 12.8333 6.05985Z" fill="#0E39B6"/>
</g>
</g>
</svg>
