<svg width="120" height="120" viewBox="0 0 120 120" fill="none" xmlns="http://www.w3.org/2000/svg">
  <circle cx="60" cy="60" r="50" fill="#F6F7F8"/>
  <path d="M60 30C44.536 30 32 42.536 32 58C32 73.464 44.536 86 60 86C75.464 86 88 73.464 88 58C88 42.536 75.464 30 60 30ZM60 80C48.954 80 40 71.046 40 60C40 48.954 48.954 40 60 40C71.046 40 80 48.954 80 60C80 71.046 71.046 80 60 80Z" fill="#A3ADBB"/>
  <path d="M60 45C55.029 45 51 49.029 51 54C51 58.971 55.029 63 60 63C64.971 63 69 58.971 69 54C69 49.029 64.971 45 60 45ZM60 59C57.239 59 55 56.761 55 54C55 51.239 57.239 49 60 49C62.761 49 65 51.239 65 54C65 56.761 62.761 59 60 59Z" fill="#A3ADBB"/>
  <path d="M60 70C58.343 70 57 71.343 57 73C57 74.657 58.343 76 60 76C61.657 76 63 74.657 63 73C63 71.343 61.657 70 60 70Z" fill="#A3ADBB"/>
</svg> 