<svg width="120" height="120" viewBox="0 0 120 120" fill="none" xmlns="http://www.w3.org/2000/svg">
  <circle cx="60" cy="60" r="50" fill="#F6F7F8"/>
  <path d="M60 25C45.536 25 34 36.536 34 51C34 65.464 45.536 77 60 77C74.464 77 86 65.464 86 51C86 36.536 74.464 25 60 25ZM60 71C48.954 71 40 62.046 40 51C40 39.954 48.954 31 60 31C71.046 31 80 39.954 80 51C80 62.046 71.046 71 60 71Z" fill="#A3ADBB"/>
  <path d="M60 40C55.029 40 51 44.029 51 49C51 53.971 55.029 58 60 58C64.971 58 69 53.971 69 49C69 44.029 64.971 40 60 40ZM60 54C57.239 54 55 51.761 55 49C55 46.239 57.239 44 60 44C62.761 44 65 46.239 65 49C65 51.761 62.761 54 60 54Z" fill="#A3ADBB"/>
  <path d="M60 65C58.343 65 57 66.343 57 68C57 69.657 58.343 71 60 71C61.657 71 63 69.657 63 68C63 66.343 61.657 65 60 65Z" fill="#A3ADBB"/>
  <path d="M60 35C58.343 35 57 36.343 57 38C57 39.657 58.343 41 60 41C61.657 41 63 39.657 63 38C63 36.343 61.657 35 60 35Z" fill="#A3ADBB"/>
</svg> 