<?xml version="1.0" ?>
<svg id="Layer_1" fill="#47586e" style="enable-background:new 0 0 32 32;" version="1.1" viewBox="0 0 32 32"
	xml:space="preserve" xmlns="http://www.w3.org/2000/svg" xmlns:xlink="http://www.w3.org/1999/xlink">
	<style type="text/css">
		.st0 {
			clip-path: url(#SVGID_2_);
		}

		.st1 {
			clip-path: url(#SVGID_4_);
		}
	</style>
	<g>
		<g>
			<path
				d="M16,27.3076172c-5.5136719,0-10-4.4863281-10-10c0-0.5522461,0.4472656-1,1-1s1,0.4477539,1,1    c0,4.4111328,3.5888672,8,8,8s8-3.5888672,8-8c0-0.5522461,0.4472656-1,1-1s1,0.4477539,1,1    C26,22.8212891,21.5136719,27.3076172,16,27.3076172z" />
		</g>
		<g>
			<path
				d="M16,24c-2.0009766,0-3.8623047-0.9912109-4.9804688-2.6523438    c-0.3076172-0.4589844-0.1865234-1.0800781,0.2714844-1.3886719c0.4599609-0.3076172,1.0791016-0.1865234,1.3886719,0.2714844    C13.4248047,21.3388672,14.6660156,22,16,22c2.2060547,0,4-1.7939453,4-4v-6.8398438c0-0.5522461,0.4472656-1,1-1s1,0.4477539,1,1    V18C22,21.3085938,19.3085938,24,16,24z" />
		</g>
		<g>
			<path
				d="M11,18c-0.5527344,0-1-0.4472656-1-1V6c0-3.3085938,2.6914063-6,6-6s6,2.6914063,6,6v1c0,0.5522461-0.4472656,1-1,1    s-1-0.4477539-1-1V6c0-2.2055664-1.7939453-4-4-4s-4,1.7944336-4,4v11C12,17.5527344,11.5527344,18,11,18z" />
		</g>
		<g>
			<path
				d="M21,32H11c-0.5527344,0-1-0.4472656-1-1s0.4472656-1,1-1h10c0.5527344,0,1,0.4472656,1,1S21.5527344,32,21,32z" />
		</g>
		<g>
			<path
				d="M16,32c-0.5527344,0-1-0.4472656-1-1v-4.6923828c0-0.5527344,0.4472656-1,1-1s1,0.4472656,1,1V31    C17,31.5527344,16.5527344,32,16,32z" />
		</g>
		<g>
			<path
				d="M9.9882813,19.0117188c-0.2558594,0-0.5117188-0.0976563-0.7070313-0.2929688    c-0.390625-0.390625-0.390625-1.0234375,0-1.4140625L21.3046875,5.28125c0.390625-0.390625,1.0234375-0.390625,1.4140625,0    s0.390625,1.0234375,0,1.4140625L10.6953125,18.71875C10.5,18.9140625,10.2441406,19.0117188,9.9882813,19.0117188z" />
		</g>
	</g>
</svg>