<svg width="20" height="20" viewBox="0 0 20 20" fill="none" xmlns="http://www.w3.org/2000/svg">
<path d="M18.3084 15.2743C18.3084 15.5743 18.2417 15.8827 18.1001 16.1827C17.9584 16.4827 17.7751 16.766 17.5334 17.0327C17.1251 17.4827 16.6751 17.8077 16.1667 18.016C15.6667 18.2244 15.1251 18.3327 14.5417 18.3327C13.6917 18.3327 12.7834 18.1327 11.8251 17.7244C10.8667 17.316 9.90842 16.766 8.95842 16.0744C8.00008 15.3744 7.09175 14.5993 6.22508 13.741C5.36675 12.8743 4.59175 11.966 3.90008 11.016C3.21675 10.066 2.66675 9.11602 2.26675 8.17435C1.86675 7.22435 1.66675 6.31602 1.66675 5.44935C1.66675 4.88268 1.76675 4.34102 1.96675 3.84102C2.16675 3.33268 2.48341 2.86602 2.92508 2.44935C3.45841 1.92435 4.04175 1.66602 4.65841 1.66602C4.89175 1.66602 5.12508 1.71602 5.33341 1.81602C5.55008 1.91602 5.74175 2.06602 5.89175 2.28268L7.82508 5.00768C7.97508 5.21602 8.08341 5.40768 8.15841 5.59102C8.23341 5.76602 8.27508 5.94102 8.27508 6.09935C8.27508 6.29935 8.21675 6.49935 8.10008 6.69102C7.99175 6.88268 7.83341 7.08268 7.63341 7.28268L7.00008 7.94102C6.90841 8.03268 6.86675 8.14102 6.86675 8.27435C6.86675 8.34102 6.87508 8.39935 6.89175 8.46602C6.91675 8.53268 6.94175 8.58268 6.95842 8.63268C7.10842 8.90768 7.36675 9.26602 7.73341 9.69935C8.10841 10.1327 8.50841 10.5743 8.94175 11.016C9.39175 11.4577 9.82508 11.866 10.2667 12.241C10.7001 12.6077 11.0584 12.8577 11.3417 13.0077C11.3834 13.0243 11.4334 13.0493 11.4917 13.0743C11.5584 13.0993 11.6251 13.1077 11.7001 13.1077C11.8417 13.1077 11.9501 13.0577 12.0417 12.966L12.6751 12.341C12.8834 12.1327 13.0834 11.9743 13.2751 11.8743C13.4667 11.7577 13.6584 11.6993 13.8667 11.6993C14.0251 11.6993 14.1917 11.7327 14.3751 11.8077C14.5584 11.8827 14.7501 11.991 14.9584 12.1327L17.7167 14.091C17.9334 14.241 18.0834 14.416 18.1751 14.6243C18.2584 14.8327 18.3084 15.041 18.3084 15.2743Z" stroke="#A5A5A5" stroke-width="1.5" stroke-miterlimit="10"/>
</svg>
