  <svg xmlns="http://www.w3.org/2000/svg" width="90" height="90" viewBox="0 0 90 90" fill="none">
      <rect width="90" height="90" rx="14" fill="url(#paint0_linear_12360_221555)" />
      <path
        d="M71.8504 38.1051L69.9399 40.8462C69.0033 42.1898 67.7805 43.3308 66.3607 44.1634C39.888 59.7273 21.7892 51.6508 19.8156 50.27C19.4514 50.0136 18.1524 49.1569 18 48.7815C19.4979 47.5085 22.1405 46.1667 23.3744 44.5815C44.8128 53.7638 66.6376 40.9577 71.5363 37.7724C71.75 37.6349 71.9916 37.8913 71.8485 38.1032L71.8504 38.1051Z"
        fill="#0E39B6" />
      <path
        d="M41.9445 38.0877L40.7256 40.0783C40.3874 40.6307 40.561 41.3526 41.1133 41.6908L43.245 42.996C43.7973 43.3342 44.5192 43.1606 44.8574 42.6083L46.0763 40.6177C46.4145 40.0654 46.2409 39.3435 45.6886 39.0053L43.5569 37.7C43.0046 37.3619 42.2827 37.5354 41.9445 38.0877Z"
        fill="#0E39B6" />
      <path
        d="M47.176 37.5L45.9571 39.4906C45.6189 40.0429 45.7925 40.7648 46.3448 41.103L48.4764 42.4083C49.0288 42.7465 49.7507 42.5729 50.0888 42.0206L51.3077 40.03C51.6459 39.4777 51.4723 38.7558 50.92 38.4176L48.7884 37.1123C48.2361 36.7741 47.5142 36.9477 47.176 37.5Z"
        fill="#0E39B6" />
      <defs>
        <linearGradient id="paint0_linear_12360_221555" x1="90" y1="45" x2="0" y2="45" gradientUnits="userSpaceOnUse">
          <stop stop-color="#BAF0E8" />
          <stop offset="1" stop-color="#F5DAB8" />
        </linearGradient>
      </defs>
    </svg>