<svg width="21" height="20" viewBox="0 0 21 20" fill="none" xmlns="http://www.w3.org/2000/svg">
<path d="M12.3501 18.024C11.3667 18.024 9.97507 17.3323 8.87506 14.024L8.27506 12.224L6.47506 11.624C3.17507 10.524 2.4834 9.13229 2.4834 8.14896C2.4834 7.17396 3.17507 5.77396 6.47506 4.66563L13.5501 2.30729C15.3167 1.71563 16.7917 1.89063 17.7001 2.79063C18.6084 3.69063 18.7834 5.17396 18.1917 6.94063L15.8334 14.0156C14.7251 17.3323 13.3334 18.024 12.3501 18.024ZM6.86673 5.85729C4.55006 6.63229 3.72506 7.54896 3.72506 8.14896C3.72506 8.74896 4.55006 9.66563 6.86673 10.4323L8.96673 11.1323C9.15006 11.1906 9.30007 11.3406 9.3584 11.524L10.0584 13.624C10.8251 15.9406 11.7501 16.7656 12.3501 16.7656C12.9501 16.7656 13.8667 15.9406 14.6417 13.624L17.0001 6.54896C17.4251 5.26563 17.3501 4.21563 16.8084 3.67396C16.2667 3.13229 15.2167 3.06563 13.9417 3.49063L6.86673 5.85729Z" fill="#0E39B6"/>
<path d="M8.92516 11.9989C8.76683 11.9989 8.6085 11.9405 8.4835 11.8155C8.24183 11.5739 8.24183 11.1739 8.4835 10.9322L11.4668 7.94053C11.7085 7.69886 12.1085 7.69886 12.3502 7.94053C12.5918 8.18219 12.5918 8.58219 12.3502 8.82386L9.36683 11.8155C9.25016 11.9405 9.0835 11.9989 8.92516 11.9989Z" fill="#0E39B6"/>
</svg>
