<svg width="18" height="18" viewBox="0 0 18 18" fill="none" xmlns="http://www.w3.org/2000/svg">
<path d="M13.3726 10.5634C13.1469 10.4507 12.0184 9.91549 11.8209 9.83099C11.6234 9.74648 11.4541 9.71831 11.3131 9.94366C11.172 10.169 10.7206 10.6761 10.6078 10.8169C10.4667 10.9577 10.3539 10.9859 10.1282 10.8732C9.90248 10.7606 9.16896 10.5352 8.29438 9.77465C7.61729 9.1831 7.1659 8.4507 7.02483 8.22535C6.88377 8 7.02484 7.88732 7.13768 7.77465C7.25053 7.66197 7.36338 7.52113 7.47623 7.38028C7.58908 7.23944 7.61729 7.15493 7.70193 7.01408C7.78656 6.87324 7.73014 6.73239 7.67372 6.61972C7.61729 6.50704 7.1659 5.40845 6.96841 4.95775C6.77093 4.53521 6.60165 4.59155 6.46059 4.56338C6.31953 4.56338 6.17847 4.56338 6.03741 4.56338C5.89635 4.56338 5.64244 4.61972 5.44495 4.84507C5.24747 5.07042 4.65501 5.60563 4.65501 6.70423C4.65501 7.80282 5.47316 8.84507 5.58601 9.01408C5.69886 9.15493 7.19411 11.4085 9.45108 12.3662C9.98711 12.5915 10.4103 12.7324 10.7488 12.8451C11.2849 13.0141 11.7927 12.9859 12.1877 12.9296C12.6108 12.8732 13.5419 12.3944 13.7111 11.8873C13.9086 11.3803 13.9086 10.9296 13.8522 10.8451C13.7393 10.7324 13.5983 10.6761 13.3726 10.5634ZM9.05611 16.3662C7.70193 16.3662 6.40417 16 5.24747 15.3239L4.96534 15.1549L2.14413 15.8873L2.90586 13.1549L2.73658 12.8732C2.00307 11.6901 1.60809 10.338 1.60809 8.92958C1.60809 4.84507 4.96535 1.52113 9.08432 1.52113C11.031 1.52113 12.9212 2.28169 14.3318 3.69014C15.7424 5.09859 16.5041 6.95775 16.5041 8.92958C16.5041 13.0141 13.1469 16.3662 9.05611 16.3662ZM15.4039 2.61972C13.7111 0.929578 11.4541 0 9.05611 0C4.11898 0 0.0846364 4 0.0846364 8.92958C0.0846364 10.507 0.507819 12.0282 1.26955 13.3803L0 18L4.73965 16.7606C6.03741 17.4648 7.53265 17.8592 9.0279 17.8592C13.965 17.8592 17.9994 13.8592 17.9994 8.92958C18.0276 6.56338 17.0966 4.30986 15.4039 2.61972Z" fill="#00AF6C"/>
</svg>
