<svg width="120" height="120" viewBox="0 0 120 120" fill="none" xmlns="http://www.w3.org/2000/svg">
  <circle cx="60" cy="60" r="50" fill="#FEF2F2"/>
  <path d="M60 30C44.536 30 32 42.536 32 58C32 73.464 44.536 86 60 86C75.464 86 88 73.464 88 58C88 42.536 75.464 30 60 30ZM60 80C48.954 80 40 71.046 40 60C40 48.954 48.954 40 60 40C71.046 40 80 48.954 80 60C80 71.046 71.046 80 60 80Z" fill="#FECACA"/>
  <path d="M60 45L65 50L70 45L65 40L60 45ZM65 70L60 65L55 70L60 75L65 70Z" fill="#EF4444"/>
  <path d="M60 55C58.343 55 57 56.343 57 58C57 59.657 58.343 61 60 61C61.657 61 63 59.657 63 58C63 56.343 61.657 55 60 55Z" fill="#EF4444"/>
</svg> 