<svg width="120" height="120" viewBox="0 0 120 120" fill="none" xmlns="http://www.w3.org/2000/svg">
  <circle cx="60" cy="60" r="50" fill="#FEF2F2"/>
  <path d="M60 25C45.536 25 34 36.536 34 51C34 65.464 45.536 77 60 77C74.464 77 86 65.464 86 51C86 36.536 74.464 25 60 25ZM60 71C48.954 71 40 62.046 40 51C40 39.954 48.954 31 60 31C71.046 31 80 39.954 80 51C80 62.046 71.046 71 60 71Z" fill="#FECACA"/>
  <path d="M60 40L65 45L70 40L65 35L60 40ZM65 65L60 60L55 65L60 70L65 65Z" fill="#EF4444"/>
  <path d="M60 50C58.343 50 57 51.343 57 53C57 54.657 58.343 56 60 56C61.657 56 63 54.657 63 53C63 51.343 61.657 50 60 50Z" fill="#EF4444"/>
</svg> 