<svg width="16" height="17" viewBox="0 0 16 17" fill="none" xmlns="http://www.w3.org/2000/svg">
    <path
        d="M8.79325 4.49951H4.52659C4.35325 4.49951 4.18659 4.50618 4.02659 4.52618C2.23325 4.67951 1.33325 5.73951 1.33325 7.69285V10.3595C1.33325 13.0262 2.39992 13.5528 4.52659 13.5528H4.79325C4.93992 13.5528 5.13325 13.6528 5.21992 13.7662L6.01992 14.8328C6.37325 15.3062 6.94658 15.3062 7.29992 14.8328L8.09992 13.7662C8.19992 13.6328 8.35992 13.5528 8.52658 13.5528H8.79325C10.7466 13.5528 11.8066 12.6595 11.9599 10.8595C11.9799 10.6995 11.9866 10.5328 11.9866 10.3595V7.69285C11.9866 5.56618 10.9199 4.49951 8.79325 4.49951ZM4.33325 9.83285C3.95992 9.83285 3.66659 9.53285 3.66659 9.16618C3.66659 8.79951 3.96659 8.49951 4.33325 8.49951C4.69992 8.49951 4.99992 8.79951 4.99992 9.16618C4.99992 9.53285 4.69992 9.83285 4.33325 9.83285ZM6.65992 9.83285C6.28658 9.83285 5.99325 9.53285 5.99325 9.16618C5.99325 8.79951 6.29325 8.49951 6.65992 8.49951C7.02658 8.49951 7.32658 8.79951 7.32658 9.16618C7.32658 9.53285 7.03325 9.83285 6.65992 9.83285ZM8.99325 9.83285C8.61992 9.83285 8.32658 9.53285 8.32658 9.16618C8.32658 8.79951 8.62658 8.49951 8.99325 8.49951C9.35992 8.49951 9.65992 8.79951 9.65992 9.16618C9.65992 9.53285 9.35992 9.83285 8.99325 9.83285Z"
        fill="#47586E" />
    <path
        d="M14.6534 5.02634V7.69301C14.6534 9.02634 14.2401 9.93301 13.4134 10.433C13.2134 10.553 12.9801 10.393 12.9801 10.1597L12.9867 7.69301C12.9867 5.02634 11.4601 3.49967 8.79342 3.49967L4.73342 3.50634C4.50008 3.50634 4.34008 3.27301 4.46008 3.07301C4.96008 2.24634 5.86675 1.83301 7.19342 1.83301H11.4601C13.5868 1.83301 14.6534 2.89967 14.6534 5.02634Z"
        fill="#47586E" />
</svg>