<svg width="16" height="17" viewBox="0 0 16 17" fill="none" xmlns="http://www.w3.org/2000/svg">
    <path
        d="M10.0002 15.6668H6.00016C2.38016 15.6668 0.833496 14.1202 0.833496 10.5002V6.50016C0.833496 2.88016 2.38016 1.3335 6.00016 1.3335H10.0002C13.6202 1.3335 15.1668 2.88016 15.1668 6.50016V10.5002C15.1668 10.6668 15.1668 10.8335 15.1535 10.9935C15.1335 11.2068 14.9868 11.3802 14.7802 11.4335C14.5735 11.4868 14.3602 11.4068 14.2402 11.2268C14.2202 11.2068 14.1802 11.1602 14.1535 11.1268C13.6735 10.6135 13.0202 10.3335 12.3335 10.3335C11.6535 10.3335 11.0135 10.6002 10.5402 11.0868C10.0868 11.5535 9.8335 12.1735 9.8335 12.8335C9.8335 13.2802 9.96016 13.7268 10.1935 14.1202C10.3135 14.3202 10.4602 14.5068 10.6268 14.6535C10.6535 14.6735 10.6735 14.6935 10.6868 14.7068L10.7402 14.7535C10.8935 14.8802 10.9668 15.1002 10.9068 15.2935C10.8468 15.4868 10.6868 15.6335 10.4868 15.6535C10.3402 15.6668 10.1668 15.6668 10.0002 15.6668ZM6.00016 2.3335C2.92683 2.3335 1.8335 3.42683 1.8335 6.50016V10.5002C1.8335 13.5735 2.92683 14.6668 6.00016 14.6668H9.3535C9.34683 14.6535 9.34016 14.6468 9.3335 14.6335C9.00683 14.0868 8.82683 13.4602 8.82683 12.8335C8.82683 11.9135 9.18016 11.0468 9.8135 10.3935C10.4668 9.72018 11.3868 9.3335 12.3268 9.3335C12.9802 9.3335 13.6202 9.51352 14.1602 9.85352V6.50016C14.1602 3.42683 13.0668 2.3335 9.9935 2.3335H6.00016Z"
        fill="#0F0F0F" />
    <path
        d="M14.3197 5.73975H1.67969C1.40635 5.73975 1.17969 5.51308 1.17969 5.23975C1.17969 4.96641 1.40635 4.73975 1.67969 4.73975H14.3197C14.593 4.73975 14.8197 4.96641 14.8197 5.23975C14.8197 5.51308 14.5997 5.73975 14.3197 5.73975Z"
        fill="#0F0F0F" />
    <path
        d="M5.68018 5.64624C5.40684 5.64624 5.18018 5.41957 5.18018 5.14624V1.90625C5.18018 1.63292 5.40684 1.40625 5.68018 1.40625C5.95351 1.40625 6.18018 1.63292 6.18018 1.90625V5.14624C6.18018 5.41957 5.95351 5.64624 5.68018 5.64624Z"
        fill="#0F0F0F" />
    <path
        d="M10.3198 5.34627C10.0465 5.34627 9.81982 5.11961 9.81982 4.84627V1.90625C9.81982 1.63292 10.0465 1.40625 10.3198 1.40625C10.5932 1.40625 10.8198 1.63292 10.8198 1.90625V4.84627C10.8198 5.12627 10.5998 5.34627 10.3198 5.34627Z"
        fill="#0F0F0F" />
    <path
        d="M12.3327 16.3335C11.546 16.3335 10.7794 16.0668 10.1794 15.5735C10.1594 15.5602 10.1394 15.5468 10.126 15.5335C10.0794 15.4935 10.046 15.4668 10.0194 15.4401C10.006 15.4335 9.99936 15.4268 9.9927 15.4135C9.74603 15.1935 9.51936 14.9268 9.34603 14.6335C9.01936 14.0868 8.83936 13.4602 8.83936 12.8335C8.83936 11.9135 9.1927 11.0468 9.82603 10.3935C10.4794 9.72018 11.3994 9.3335 12.3394 9.3335C13.326 9.3335 14.266 9.74684 14.9194 10.4735C14.926 10.4802 14.9394 10.4935 14.946 10.5068C14.9927 10.5535 15.0394 10.6135 15.0727 10.6668C15.5527 11.2468 15.8394 12.0268 15.8394 12.8335C15.8394 13.1268 15.806 13.4002 15.7394 13.6602C15.6594 13.9935 15.526 14.3202 15.3394 14.6335C14.6994 15.6868 13.5527 16.3335 12.3327 16.3335ZM10.726 14.7335C10.746 14.7468 10.7594 14.7535 10.7727 14.7668C11.2127 15.1335 11.746 15.3268 12.3327 15.3268C13.206 15.3268 14.0194 14.8602 14.4727 14.1135C14.606 13.8935 14.6994 13.6535 14.7594 13.4068C14.806 13.2202 14.8327 13.0335 14.8327 12.8268C14.8327 12.2535 14.6327 11.7002 14.266 11.2602L14.206 11.1802C14.186 11.1602 14.166 11.1402 14.1527 11.1135C13.6727 10.6068 13.0194 10.3268 12.3327 10.3268C11.6527 10.3268 11.0127 10.5935 10.5394 11.0802C10.086 11.5468 9.83269 12.1668 9.83269 12.8268C9.83269 13.2735 9.95935 13.7202 10.1927 14.1135C10.3127 14.3135 10.4594 14.5001 10.626 14.6468C10.6527 14.6668 10.6727 14.6868 10.686 14.7002L10.726 14.7335Z"
        fill="#0F0F0F" />
    <path
        d="M13.4534 13.3198H11.2134C10.94 13.3198 10.7134 13.0932 10.7134 12.8198C10.7134 12.5465 10.94 12.3198 11.2134 12.3198H13.4534C13.7267 12.3198 13.9534 12.5465 13.9534 12.8198C13.9534 13.0932 13.7334 13.3198 13.4534 13.3198Z"
        fill="#0F0F0F" />
    <path
        d="M12.333 14.467C12.0597 14.467 11.833 14.2404 11.833 13.967V11.7271C11.833 11.4537 12.0597 11.2271 12.333 11.2271C12.6063 11.2271 12.833 11.4537 12.833 11.7271V13.967C12.833 14.247 12.6063 14.467 12.333 14.467Z"
        fill="#0F0F0F" />
</svg>