<svg width="200" height="200" viewBox="0 0 200 200" fill="none" xmlns="http://www.w3.org/2000/svg">
  <circle cx="100" cy="100" r="80" fill="#FEF2F2" stroke="#FECACA" stroke-width="2" />
  <path
    d="M100 60C77.909 60 60 77.909 60 100C60 122.091 77.909 140 100 140C122.091 140 140 122.091 140 100C140 77.909 122.091 60 100 60ZM100 130C82.327 130 68 115.673 68 98C68 80.327 82.327 66 100 66C117.673 66 132 80.327 132 98C132 115.673 117.673 130 100 130Z"
    fill="#DC2626" />
  <path
    d="M100 80C95.582 80 92 83.582 92 88C92 92.418 95.582 96 100 96C104.418 96 108 92.418 108 88C108 83.582 104.418 80 100 80ZM100 90C98.895 90 98 90.895 98 92C98 93.105 98.895 94 100 94C101.105 94 102 93.105 102 92C102 90.895 101.105 90 100 90Z"
    fill="#DC2626" />
  <path
    d="M100 100C98.895 100 98 100.895 98 102V110C98 111.105 98.895 112 100 112C101.105 112 102 111.105 102 110V102C102 100.895 101.105 100 100 100Z"
    fill="#DC2626" />
  <path d="M85 75L95 85M95 85L105 75M95 85V95" stroke="#DC2626" stroke-width="2" stroke-linecap="round"
    stroke-linejoin="round" />
  <path d="M115 75L105 85M105 85L95 75M105 85V95" stroke="#DC2626" stroke-width="2" stroke-linecap="round"
    stroke-linejoin="round" />
</svg>